<?xml version="1.0" encoding="utf-8"?>
<!-- Generator: Adobe Illustrator 24.2.0, SVG Export Plug-In . SVG Version: 6.00 Build 0)  -->
<svg version="1.1" id="Layer_1" xmlns="http://www.w3.org/2000/svg" xmlns:xlink="http://www.w3.org/1999/xlink" x="0px" y="0px"
	 viewBox="0 0 447 228" style="enable-background:new 0 0 447 228;" xml:space="preserve">
<style type="text/css">
	.st0{fill:#D4D4D4;stroke:#878787;stroke-width:0.4;stroke-miterlimit:10;}
	.st1{fill:#241B58;}
	.st2{fill:#7E739E;}
	.st3{fill:#878787;}
	.st4{font-family:'RealTextPro-Regular';}
	.st5{font-size:7px;}
	.st6{fill:none;stroke:#B2B2B2;stroke-width:0.4;stroke-miterlimit:10;}
	.st7{fill:none;}
	.st8{font-size:6.5px;}
	.st9{fill:none;stroke:#878787;stroke-width:0.75;}
</style>
<g>
	<g>
		<path class="st0" d="M154.5,66l45.7,20.5c-11.3,25.2-41,36.5-66.2,25.2c-5.3-2.4-9.5-5.2-13.8-9.2L154.5,66z"/>
		<g>
			<path class="st1" d="M161.3,11.7c21.9,0.2,40.9,14.4,47.3,35.4L161,61.3L161.3,11.7z"/>
			<g>
				<path class="st1" d="M161.5,11.9c10.7,0.1,20.8,3.5,29.2,9.8s14.5,15,17.6,25.2L161.2,61L161.5,11.9 M161.1,11.5l-0.3,50.1
					l48-14.4C202.4,25.8,183.4,11.6,161.1,11.5L161.1,11.5z"/>
			</g>
		</g>
		<g>
			<path class="st2" d="M161.4,61.6l47.3-14.2c3.5,11.9,2.8,23.2-2.3,34.5L161.4,61.6z"/>
			<g>
				<path class="st1" d="M208.6,47.7c3.4,11.7,2.7,22.8-2.3,34l-44.3-20L208.6,47.7 M208.8,47.2l-48,14.4l45.7,20.6
					C211.7,70.7,212.5,59.4,208.8,47.2L208.8,47.2z"/>
			</g>
		</g>
		<path class="st0" d="M154.4,65.9l-34.3,36.5c-20.2-18.9-21.2-50.6-2.2-70.8c9.9-10.6,22.2-15.9,36.7-15.8L154.4,65.9z"/>
	</g>
	<text transform="matrix(1 0 0 1 164.0762 145.5452)" class="st3 st4 st5">207 620 kariet</text>
	<text transform="matrix(1 0 0 1 164.0762 154.5452)" class="st3 st4 st5">zostáva v jednej</text>
	<text transform="matrix(1 0 0 1 164.0762 163.5452)" class="st3 st4 st5">mestskej časti</text>
	<text transform="matrix(1 0 0 1 0.2556 77.2188)" class="st3 st4 st5">261 448 kariet</text>
	<text transform="matrix(1 0 0 1 0.2556 86.2188)" class="st3 st4 st5">sa pohybuje medzi</text>
	<text transform="matrix(1 0 0 1 0.2556 95.2188)" class="st3 st4 st5">mestskými časťami</text>
	<line class="st6" x1="0.3" y1="65.8" x2="93.4" y2="65.8"/>
	<line class="st6" x1="190.7" y1="12.1" x2="317.6" y2="12.1"/>
	<line class="st6" x1="217.9" y1="65.8" x2="317.6" y2="65.8"/>
	<line class="st6" x1="157.3" y1="124.2" x2="157.3" y2="163.8"/>
	<line class="st6" x1="380.2" y1="86.7" x2="380.2" y2="123.4"/>
	<g>
		<text transform="matrix(1 0 0 1 388.0952 105.6382)" class="st3 st4 st5">67 908 kariet</text>
		<text transform="matrix(1 0 0 1 388.0952 114.6382)" class="st3 st4 st5">odchádza denne</text>
		<text transform="matrix(1 0 0 1 388.0952 123.6382)" class="st3 st4 st5">z Bratislavy</text>
	</g>
	<text transform="matrix(1 0 0 1 242.7369 23.5325)" class="st1 st4 st5">138 557 kariet</text>
	<text transform="matrix(1 0 0 1 242.7369 32.5325)" class="st1 st4 st5">prichádza denne</text>
	<text transform="matrix(1 0 0 1 242.7369 41.5325)" class="st1 st4 st5">z Bratislavského</text>
	<text transform="matrix(1 0 0 1 242.7369 50.5325)" class="st1 st4 st5">a Trnavského kraja</text>
	<text transform="matrix(1 0 0 1 242.7371 76.6057)" class="st2 st4 st5">78 724 kariet </text>
	<text transform="matrix(1 0 0 1 242.7371 85.6057)" class="st2 st4 st5">prichádza denne </text>
	<text transform="matrix(1 0 0 1 242.7371 94.6057)" class="st2 st4 st5">z iných častí Slovenska </text>
	<text transform="matrix(1 0 0 1 242.7371 103.6057)" class="st2 st4 st5">a pohraničia</text>
	<circle class="st0" cx="380.2" cy="60.3" r="16.4"/>
</g>
<rect x="0.2" y="-65.4" class="st7" width="200.1" height="47"/>
<g>
	<text transform="matrix(1 0 0 1 0.2562 208.1575)" class="st3 st4 st8">Mobilita sim kariet, Zdroj údajov: 3 mobilní operátori, Spracovanie údajov: MarketLocator</text>
</g>
<line class="st9" x1="0.3" y1="194" x2="447" y2="194"/>
</svg>
