<?xml version="1.0" encoding="utf-8"?>
<!-- Generator: Adobe Illustrator 24.2.0, SVG Export Plug-In . SVG Version: 6.00 Build 0)  -->
<svg version="1.1" id="Layer_1" xmlns="http://www.w3.org/2000/svg" xmlns:xlink="http://www.w3.org/1999/xlink" x="0px" y="0px"
	 viewBox="0 0 321 170" style="enable-background:new 0 0 321 170;" xml:space="preserve">
<style type="text/css">
	.st0{fill:#F4F4F4;}
	.st1{fill:#241B58;}
	.st2{font-family:'RealTextPro-Regular';}
	.st3{font-size:6.5px;}
	.st4{fill:#878787;}
	.st5{fill:none;stroke:#878787;stroke-width:0.75;}
</style>
<g>
	<g>
		<rect y="33" class="st0" width="321" height="18"/>
		<rect y="69" class="st0" width="321" height="18"/>
		<rect y="105" class="st0" width="321" height="18"/>
	</g>
	<g>
		<g>
			<g>
				<path class="st1" d="M280.5,57.6v8.2h-58.7v-8.2L280.5,57.6 M280.9,57.2h-59.5v9h59.5V57.2L280.9,57.2z"/>
			</g>
			<rect x="221.4" y="57.2" class="st1" width="36.9" height="9"/>
		</g>
		<g>
			<g>
				<path class="st1" d="M291.1,39.6v8.2h-69.3v-8.2H291.1 M291.5,39.2h-70.1v9h70.1V39.2L291.5,39.2z"/>
			</g>
			<rect x="221.4" y="39.2" class="st1" width="37.1" height="9"/>
		</g>
		<g>
			<g>
				<path class="st1" d="M287.1,75.6v8.2h-65.2v-8.2H287.1 M287.5,75.2h-66v9h66V75.2L287.5,75.2z"/>
			</g>
			<rect x="221.4" y="75.2" class="st1" width="31.7" height="9"/>
		</g>
		<g>
			<g>
				<path class="st1" d="M276.5,93.6v8.2h-54.6v-8.2H276.5 M276.9,93.2h-55.4v9h55.4V93.2L276.9,93.2z"/>
			</g>
			<rect x="221.4" y="93.2" class="st1" width="26.6" height="9"/>
		</g>
		<g>
			<g>
				<path class="st1" d="M267.6,111.6v8.2h-45.8v-8.2H267.6 M268,111.2h-46.6v9H268V111.2L268,111.2z"/>
			</g>
			<rect x="221.4" y="111.2" class="st1" width="21.9" height="9"/>
		</g>
	</g>
	<g>
		<rect x="78.7" y="57.2" class="st1" width="59.5" height="9"/>
		<rect x="78.7" y="39.2" class="st1" width="70.1" height="9"/>
		<rect x="78.7" y="75.2" class="st1" width="66" height="9"/>
		<rect x="78.7" y="93.2" class="st1" width="55.4" height="9"/>
		<rect x="78.7" y="111.2" class="st1" width="46.6" height="9"/>
	</g>
	<g>
		<text transform="matrix(1 0 0 1 -6.347656e-03 120.2386)" class="st1 st2 st3">Bratislava V</text>
	</g>
	<g>
		<text transform="matrix(1 0 0 1 -6.103516e-03 102.2343)" class="st1 st2 st3">Bratislava IV</text>
	</g>
	<g>
		<text transform="matrix(1 0 0 1 -5.859375e-03 84.2313)" class="st1 st2 st3">Bratislava III</text>
	</g>
	<g>
		<text transform="matrix(1 0 0 1 -5.859375e-03 48.2186)" class="st1 st2 st3">Bratislava II</text>
	</g>
	<g>
		<text transform="matrix(1 0 0 1 -6.103516e-03 66.2266)" class="st1 st2 st3">Bratislava I</text>
	</g>
	<g>
		<g>
			<text transform="matrix(1 0 0 1 150.9873 48.219)" class="st1 st2 st3">8</text>
			<text transform="matrix(1 0 0 1 154.8873 48.219)" class="st1 st2 st3"> </text>
			<text transform="matrix(1 0 0 1 156.1873 48.219)" class="st1 st2 st3">999</text>
		</g>
		<g>
			<text transform="matrix(1 0 0 1 127.4814 120.239)" class="st1 st2 st3">5</text>
			<text transform="matrix(1 0 0 1 131.3814 120.239)" class="st1 st2 st3"> </text>
			<text transform="matrix(1 0 0 1 132.6814 120.239)" class="st1 st2 st3">981</text>
		</g>
		<g>
			<text transform="matrix(1 0 0 1 136.3232 102.2341)" class="st1 st2 st3">7</text>
			<text transform="matrix(1 0 0 1 140.2232 102.2341)" class="st1 st2 st3"> </text>
			<text transform="matrix(1 0 0 1 141.5232 102.2341)" class="st1 st2 st3">116</text>
		</g>
		<g>
			<text transform="matrix(1 0 0 1 146.9385 84.2317)" class="st1 st2 st3">8</text>
			<text transform="matrix(1 0 0 1 150.8385 84.2317)" class="st1 st2 st3"> </text>
			<text transform="matrix(1 0 0 1 152.1385 84.2317)" class="st1 st2 st3">479</text>
		</g>
		<g>
			<text transform="matrix(1 0 0 1 140.3564 66.2268)" class="st1 st2 st3">7</text>
			<text transform="matrix(1 0 0 1 144.2564 66.2268)" class="st1 st2 st3"> </text>
			<text transform="matrix(1 0 0 1 145.5564 66.2268)" class="st1 st2 st3">634</text>
		</g>
	</g>
	<g>
		<g>
			<text transform="matrix(1 0 0 1 294.6504 48.219)" class="st1 st2 st3">53%</text>
		</g>
		<g>
			<text transform="matrix(1 0 0 1 271.1445 120.239)" class="st1 st2 st3">47%</text>
		</g>
		<g>
			<text transform="matrix(1 0 0 1 279.9863 102.2341)" class="st1 st2 st3">48%</text>
		</g>
		<g>
			<text transform="matrix(1 0 0 1 290.6016 84.2317)" class="st1 st2 st3">48%</text>
		</g>
		<g>
			<text transform="matrix(1 0 0 1 284.0195 66.2268)" class="st1 st2 st3">62%</text>
		</g>
	</g>
	<g>
		<text transform="matrix(1 0 0 1 78.6433 15.8412)" class="st4 st2 st3">počet </text>
		<text transform="matrix(1 0 0 1 78.6433 24.8412)" class="st4 st2 st3">cudzincov/cudziniek</text>
	</g>
	<g>
		<text transform="matrix(1 0 0 1 221.5398 15.8412)" class="st4 st2 st3">z toho </text>
		<text transform="matrix(1 0 0 1 221.5398 24.8412)" class="st4 st2 st3">s trvalým pobytom</text>
	</g>
	<line class="st5" x1="78.6" y1="5.5" x2="199.8" y2="5.5"/>
	<line class="st5" x1="221.5" y1="5.5" x2="321" y2="5.5"/>
</g>
<g>
	<text transform="matrix(1 0 0 1 0.417 150.9587)" class="st4 st2 st3">Počet cudzincov v jednotlivých okresoch Bratislavy, Zdroj: ÚHCP</text>
</g>
<line class="st5" x1="0.4" y1="138.5" x2="321" y2="138.5"/>
</svg>
