<?xml version="1.0" encoding="utf-8"?>
<!-- Generator: Adobe Illustrator 24.2.0, SVG Export Plug-In . SVG Version: 6.00 Build 0)  -->
<svg version="1.1" id="Layer_1" xmlns="http://www.w3.org/2000/svg" xmlns:xlink="http://www.w3.org/1999/xlink" x="0px" y="0px"
	 viewBox="0 0 273.5 207" style="enable-background:new 0 0 273.5 207;" xml:space="preserve">
<style type="text/css">
	.st0{fill:#E14E50;stroke:#FFFFFF;stroke-width:0.8903;stroke-miterlimit:10;}
	.st1{fill:#EB897F;stroke:#FFFFFF;stroke-width:0.8903;stroke-miterlimit:10;}
	.st2{fill:#F4F4F4;}
	.st3{fill:#D4D4D4;}
	.st4{font-family:'RealTextPro-Regular';}
	.st5{font-size:6.5px;}
	.st6{fill:none;stroke:#E14E50;stroke-width:0.4;stroke-miterlimit:10;}
	.st7{fill:none;stroke:#EB897F;stroke-width:0.4;stroke-miterlimit:10;}
	.st8{fill:#F8D0C8;}
	.st9{fill:none;stroke:#D9D9D9;stroke-width:0.3987;stroke-miterlimit:10;}
	.st10{fill:none;}
	.st11{fill:#878787;}
	.st12{fill:#E14E50;}
	.st13{font-family:'RealTextPro-Bold';}
	.st14{fill:#EB897F;}
	.st15{fill:none;stroke:#878787;stroke-width:0.75;}
</style>
<symbol  id="Point_red" viewBox="-3 -3 6.1 6.1">
	<g>
		<g>
			<g>
				<g>
					<path class="st0" d="M2.6,0c0-1.4-1.1-2.6-2.6-2.6c-1.4,0-2.6,1.1-2.6,2.6S-1.4,2.6,0,2.6S2.6,1.4,2.6,0z"/>
				</g>
			</g>
		</g>
	</g>
</symbol>
<symbol  id="Point_red_mid" viewBox="-3 -3 6.1 6.1">
	<g>
		<g>
			<g>
				<g>
					<path class="st1" d="M2.6,0c0-1.4-1.1-2.6-2.6-2.6c-1.4,0-2.6,1.1-2.6,2.6S-1.4,2.6,0,2.6S2.6,1.4,2.6,0z"/>
				</g>
			</g>
		</g>
	</g>
</symbol>
<g>
	<g>
		<rect x="0.1" y="118.2" class="st2" width="121.5" height="28.3"/>
		<rect x="0.1" y="61.5" class="st2" width="121.3" height="28.3"/>
		<rect x="0.1" y="14.8" class="st2" width="121.3" height="18.3"/>
	</g>
	<g>
		<text transform="matrix(1 0 0 1 0.1069 89.71)" class="st3 st4 st5">+2</text>
		<text transform="matrix(1 0 0 1 7.9069 89.71)" class="st3 st4 st5"> </text>
		<text transform="matrix(1 0 0 1 8.9069 89.71)" class="st3 st4 st5">°C</text>
		<text transform="matrix(1 0 0 1 0.1069 33.1448)" class="st3 st4 st5">+4</text>
		<text transform="matrix(1 0 0 1 7.9069 33.1448)" class="st3 st4 st5"> </text>
		<text transform="matrix(1 0 0 1 8.9069 33.1448)" class="st3 st4 st5">°C</text>
	</g>
	<polyline class="st6" points="0.1,146.6 46.9,120.8 84.5,75.7 121.4,33.1 	"/>
	<polyline class="st7" points="0.1,146.6 46.9,124 84.5,89.8 121.4,47.3 	"/>
	<polyline class="st8" points="121.4,47.3 84.5,89.8 46.9,124 0.1,146.6 46.9,120.8 84.5,75.7 121.4,33.1 	"/>
	<g>
		<g>
			<g>
				<line class="st9" x1="46.9" y1="14.8" x2="46.9" y2="123.9"/>
				<line class="st9" x1="84.5" y1="14.8" x2="84.5" y2="89.9"/>
				<line class="st9" x1="121.6" y1="14.8" x2="121.6" y2="47.3"/>
			</g>
			<g>
				<line class="st10" x1="46.9" y1="14.8" x2="46.9" y2="123.9"/>
				<line class="st10" x1="84.5" y1="14.8" x2="84.5" y2="89.9"/>
				<line class="st10" x1="121.6" y1="14.8" x2="121.6" y2="47.3"/>
			</g>
		</g>
		<g>
			<text transform="matrix(1 0 0 1 84.5259 10.1682)" class="st11 st4 st5">2050</text>
		</g>
		<g>
			<text transform="matrix(1 0 0 1 121.603 10.168)" class="st11 st4 st5">2100</text>
		</g>
		<g>
			<text transform="matrix(1 0 0 1 47.1362 10.1682)" class="st11 st4 st5">2025</text>
		</g>
	</g>
	<g>
		<defs>
			<rect id="SVGID_1_" x="81.5" y="86.8" width="6" height="6"/>
		</defs>
		<clipPath id="SVGID_2_">
			<use xlink:href="#SVGID_1_"  style="overflow:visible;"/>
		</clipPath>
		<g style="clip-path:url(#SVGID_2_);">
			
				<use xlink:href="#Point_red_mid"  width="6.1" height="6.1" x="-3" y="-3" transform="matrix(1 0 0 -1 84.5252 89.838)" style="overflow:visible;"/>
		</g>
	</g>
	<g>
		<defs>
			<rect id="SVGID_3_" x="118.6" y="44.3" width="6" height="6"/>
		</defs>
		<clipPath id="SVGID_4_">
			<use xlink:href="#SVGID_3_"  style="overflow:visible;"/>
		</clipPath>
		<g style="clip-path:url(#SVGID_4_);">
			
				<use xlink:href="#Point_red_mid"  width="6.1" height="6.1" x="-3" y="-3" transform="matrix(1 0 0 -1 121.6025 47.3183)" style="overflow:visible;"/>
		</g>
	</g>
	<g>
		<defs>
			<rect id="SVGID_5_" x="118.6" y="30.1" width="6" height="6"/>
		</defs>
		<clipPath id="SVGID_6_">
			<use xlink:href="#SVGID_5_"  style="overflow:visible;"/>
		</clipPath>
		<g style="clip-path:url(#SVGID_6_);">
			
				<use xlink:href="#Point_red"  width="6.1" height="6.1" x="-3" y="-3" transform="matrix(1 0 0 -1 121.6025 33.1451)" style="overflow:visible;"/>
		</g>
	</g>
	<g>
		<defs>
			<rect id="SVGID_7_" x="81.5" y="72.7" width="6" height="6"/>
		</defs>
		<clipPath id="SVGID_8_">
			<use xlink:href="#SVGID_7_"  style="overflow:visible;"/>
		</clipPath>
		<g style="clip-path:url(#SVGID_8_);">
			
				<use xlink:href="#Point_red"  width="6.1" height="6.1" x="-3" y="-3" transform="matrix(1 0 0 -1 84.5252 75.6648)" style="overflow:visible;"/>
		</g>
	</g>
	<g>
		<defs>
			<rect id="SVGID_9_" x="43.9" y="120.9" width="6" height="6"/>
		</defs>
		<clipPath id="SVGID_10_">
			<use xlink:href="#SVGID_9_"  style="overflow:visible;"/>
		</clipPath>
		<g style="clip-path:url(#SVGID_10_);">
			
				<use xlink:href="#Point_red_mid"  width="6.1" height="6.1" x="-3" y="-3" transform="matrix(1 0 0 -1 46.8791 123.8538)" style="overflow:visible;"/>
		</g>
	</g>
	<g>
		<defs>
			<rect id="SVGID_11_" x="43.9" y="118" width="6" height="6"/>
		</defs>
		<clipPath id="SVGID_12_">
			<use xlink:href="#SVGID_11_"  style="overflow:visible;"/>
		</clipPath>
		<g style="clip-path:url(#SVGID_12_);">
			
				<use xlink:href="#Point_red"  width="6.1" height="6.1" x="-3" y="-3" transform="matrix(1 0 0 -1 46.8791 121.0191)" style="overflow:visible;"/>
		</g>
	</g>
	<g>
		<text transform="matrix(1 0 0 1 18.1626 122.7756)" class="st12 st13 st5">+0,9</text>
		<text transform="matrix(1 0 0 1 31.8626 122.7756)" class="st12 st13 st5"> </text>
		<text transform="matrix(1 0 0 1 32.8626 122.7756)" class="st12 st13 st5">°C</text>
	</g>
	<g>
		<text transform="matrix(1 0 0 1 50.3022 128.4504)" class="st14 st13 st5">+0,8</text>
		<text transform="matrix(1 0 0 1 64.0022 128.4504)" class="st14 st13 st5"> </text>
		<text transform="matrix(1 0 0 1 65.0022 128.4504)" class="st14 st13 st5">°C</text>
	</g>
	<g>
		<text transform="matrix(1 0 0 1 54.917 77.5251)" class="st12 st13 st5">+2,5</text>
		<text transform="matrix(1 0 0 1 68.617 77.5251)" class="st12 st13 st5"> </text>
		<text transform="matrix(1 0 0 1 69.617 77.5251)" class="st12 st13 st5">°C</text>
	</g>
	<g>
		<text transform="matrix(1 0 0 1 89.2358 91.7849)" class="st14 st13 st5">+2</text>
		<text transform="matrix(1 0 0 1 97.0358 91.7849)" class="st14 st13 st5"> </text>
		<text transform="matrix(1 0 0 1 98.0358 91.7849)" class="st14 st13 st5">°C</text>
	</g>
	<g>
		<text transform="matrix(1 0 0 1 125.4644 35.1604)" class="st12 st13 st5">+4</text>
		<text transform="matrix(1 0 0 1 133.2644 35.1604)" class="st12 st13 st5"> </text>
		<text transform="matrix(1 0 0 1 134.2644 35.1604)" class="st12 st13 st5">°C</text>
	</g>
	<g>
		<text transform="matrix(1 0 0 1 124.8599 50.1638)" class="st14 st13 st5">+3,5</text>
		<text transform="matrix(1 0 0 1 138.5599 50.1638)" class="st14 st13 st5"> </text>
		<text transform="matrix(1 0 0 1 139.5599 50.1638)" class="st14 st13 st5">°C</text>
	</g>
</g>
<g>
	<text transform="matrix(1 0 0 1 0.1074 183.4585)" class="st11 st4 st5">Interval predpokladaného rozdielu v ročnom priemere teploty vzduchu v oblasti </text>
	<text transform="matrix(1 0 0 1 0.1074 194.4585)" class="st11 st4 st5">južného Slovenska v rokoch 2025–2100 (v porovnaní s obdobím 1961–1990)</text>
</g>
<line class="st15" x1="0.1" y1="169.3" x2="247.3" y2="169.3"/>
</svg>
