<?xml version="1.0" encoding="utf-8"?>
<!-- Generator: Adobe Illustrator 24.2.0, SVG Export Plug-In . SVG Version: 6.00 Build 0)  -->
<svg version="1.1" id="Layer_1" xmlns="http://www.w3.org/2000/svg" xmlns:xlink="http://www.w3.org/1999/xlink" x="0px" y="0px"
	 viewBox="0 0 446.6 432" style="enable-background:new 0 0 446.6 432;" xml:space="preserve">
<style type="text/css">
@import url("https://use.typekit.net/tfw1zbo.css");
	.Coropleth_x0020_map_x0020_outline{fill:none;stroke:#241B58;stroke-width:0.4;stroke-linejoin:round;stroke-miterlimit:10;}
	.st0{fill:none;stroke:#878787;stroke-width:0.75;}
	.st1{fill:#878787;}
	.st2{font-family:'ff-real-text-pro';}
	.st3{font-size:6.5px;}
	.st4{fill:none;stroke:#9D9D9B;stroke-width:0.4;}
	.st5{fill:#F4F4F4;}
	.st6{fill:#241B58;stroke:#241B58;stroke-width:0.4;stroke-miterlimit:10;}
	.st7{fill:#7E739E;stroke:#241B58;stroke-width:0.4;stroke-miterlimit:10;}
	.st8{fill:#948BB0;stroke:#241B58;stroke-width:0.4;stroke-miterlimit:10;}
	.st9{fill:#ADA6C4;stroke:#241B58;stroke-width:0.4;stroke-miterlimit:10;}
	.st10{fill:#C6C2D8;stroke:#241B58;stroke-width:0.4;stroke-miterlimit:10;}
	.st11{fill:#E2DFEB;stroke:#241B58;stroke-width:0.4;stroke-miterlimit:10;}
	.st12{fill:#FAE0DA;stroke:#E14E50;stroke-width:0.4;stroke-miterlimit:10;}
	.st13{fill:#F5BFB5;stroke:#E14E50;stroke-width:0.4;stroke-miterlimit:10;}
	.st14{fill:#F2AEA3;stroke:#E14E50;stroke-width:0.4;stroke-miterlimit:10;}
	.st15{fill:#EE9C91;stroke:#E14E50;stroke-width:0.4;stroke-miterlimit:10;}
	.st16{fill:#E14E50;stroke:#E14E50;stroke-width:0.4;stroke-miterlimit:10;}
	.st17{fill:#241B58;}
	.st18{fill:#E14E50;}
	.st19{fill:#878787;stroke:#D9D9D9;stroke-width:0.4;}
	.st20{fill:#F5BFB5;stroke:#FFFFFF;stroke-width:0.4;stroke-miterlimit:10;}
	.st21{fill:#E14E50;stroke:#FFFFFF;stroke-width:0.4;stroke-miterlimit:10;}
	.st22{fill:#D4D4D4;stroke:#FFFFFF;stroke-width:0.4;stroke-miterlimit:10;}
	.st23{fill:#FAE0DA;stroke:#FFFFFF;stroke-width:0.4;stroke-miterlimit:10;}
	.st24{fill:#E2DFEB;stroke:#FFFFFF;stroke-width:0.4;stroke-miterlimit:10;}
	.st25{fill:#C6C2D8;stroke:#FFFFFF;stroke-width:0.4;stroke-miterlimit:10;}
	.st26{fill:#241B58;stroke:#FFFFFF;stroke-width:0.4;stroke-linejoin:round;stroke-miterlimit:10;}
	.st27{fill:#F2AEA3;stroke:#FFFFFF;stroke-width:0.4;stroke-miterlimit:10;}
	.st28{fill:#EE9C91;stroke:#FFFFFF;stroke-width:0.4;stroke-miterlimit:10;}
	.st29{fill:#241B58;stroke:#FFFFFF;stroke-width:0.4;stroke-miterlimit:10;}
	.st30{fill:#948BB0;stroke:#FFFFFF;stroke-width:0.4;stroke-miterlimit:10;}
	.st31{fill:#ADA6C4;stroke:#FFFFFF;stroke-width:0.4;stroke-miterlimit:10;}
	.st32{fill:#7E739E;stroke:#FFFFFF;stroke-width:0.4;stroke-miterlimit:10;}
	.st33{fill:none;stroke:#878787;stroke-width:0.4;stroke-linejoin:round;stroke-miterlimit:10;}
</style>
<line class="st0" x1="123.8" y1="380.3" x2="444.8" y2="380.3"/>
<g>
	<text transform="matrix(1 0 0 1 124.4265 395.3325)" class="st1 st2 st3">Zmena mediánu príjmu mestských častí (ako percentuálneho podielu</text>
	<text transform="matrix(1 0 0 1 124.4265 406.3325)" class="st1 st2 st3">priemerného mediánu vo všetkých mestských častiach). Zdroj: SP</text>
</g>
<path class="st4" d="M255.2,373.9"/>
<g>
	<g>
		<g>
			<rect x="123.8" y="349.8" class="st5" width="320.5" height="18"/>
		</g>
		<g>
			<rect x="123.8" y="313.8" class="st5" width="320.5" height="18"/>
		</g>
		<g>
			<rect x="123.8" y="277.8" class="st5" width="320.5" height="18"/>
		</g>
		<g>
			<rect x="123.8" y="241.8" class="st5" width="320.5" height="18"/>
		</g>
		<g>
			<rect x="202.5" y="205.8" class="st5" width="241.8" height="18"/>
		</g>
		<g>
			<rect x="202.5" y="169.8" class="st5" width="241.8" height="18"/>
		</g>
		<g>
			<rect x="202.5" y="133.8" class="st5" width="241.8" height="18"/>
		</g>
		<g>
			<rect x="202.5" y="97.8" class="st5" width="241.8" height="18"/>
		</g>
		<g>
			<rect x="202.5" y="61.8" class="st5" width="241.8" height="18"/>
		</g>
	</g>
	<g>
		<g>
			<rect x="203.5" y="67.8" class="st6" width="54.7" height="9"/>
			<rect x="203.5" y="85.8" class="st7" width="30.8" height="9"/>
			<rect x="203.5" y="103.8" class="st8" width="23.9" height="9"/>
			<rect x="203.5" y="121.8" class="st9" width="17.1" height="9"/>
			<rect x="203.5" y="139.8" class="st10" width="10.3" height="9"/>
			<rect x="203.5" y="157.8" class="st11" width="6.8" height="9"/>
			<rect x="203.5" y="175.8" class="st11" width="3.4" height="9"/>
			<rect x="195.7" y="247.8" class="st12" width="6.8" height="9"/>
			<rect x="188.8" y="265.8" class="st13" width="13.7" height="9"/>
			<rect x="185.4" y="283.8" class="st14" width="17.1" height="9"/>
			<rect x="182" y="301.8" class="st15" width="20.5" height="9"/>
			<rect x="182" y="319.8" class="st15" width="20.5" height="9"/>
			<rect x="182" y="337.8" class="st15" width="20.5" height="9"/>
			<rect x="151.2" y="355.8" class="st16" width="51.3" height="9"/>
		</g>
		<g>
			<g>
				<text transform="matrix(1 0 0 1 259.8334 76.8026)" class="st17 st2 st3">+16 pb</text>
			</g>
			<g>
				<text transform="matrix(1 0 0 1 235.8929 94.8026)" class="st17 st2 st3">+9 pb</text>
			</g>
			<g>
				<text transform="matrix(1 0 0 1 229.0516 112.8026)" class="st17 st2 st3">+7 pb</text>
			</g>
			<g>
				<text transform="matrix(1 0 0 1 222.2118 130.8031)" class="st17 st2 st3">+5 pb</text>
			</g>
			<g>
				<text transform="matrix(1 0 0 1 215.3719 148.8031)" class="st17 st2 st3">+3 pb</text>
			</g>
			<g>
				<text transform="matrix(1 0 0 1 211.9515 166.8031)" class="st17 st2 st3">+2 pb</text>
			</g>
			<g>
				<text transform="matrix(1 0 0 1 208.5306 184.8031)" class="st17 st2 st3">+1 pb</text>
			</g>
			<g>
				<text transform="matrix(1 0 0 1 203.4916 202.8031)" class="st1 st2 st3">žiadna zmena</text>
			</g>
			<g>
				<text transform="matrix(1 0 0 1 203.4916 220.8031)" class="st1 st2 st3">žiadna zmena</text>
			</g>
			<g>
				<text transform="matrix(1 0 0 1 203.4916 238.8031)" class="st1 st2 st3">žiadna zmena</text>
			</g>
			<g>
				<text transform="matrix(1 0 0 1 177.5658 256.8031)" class="st18 st2 st3">-2 pb</text>
			</g>
			<g>
				<text transform="matrix(1 0 0 1 170.726 274.8031)" class="st18 st2 st3">-4 pb</text>
			</g>
			<g>
				<text transform="matrix(1 0 0 1 167.3055 292.8031)" class="st18 st2 st3">-5 pb</text>
			</g>
			<g>
				<text transform="matrix(1 0 0 1 163.8846 310.8036)" class="st18 st2 st3">-6 pb</text>
			</g>
			<g>
				<text transform="matrix(1 0 0 1 163.8846 328.8036)" class="st18 st2 st3">-6 pb</text>
			</g>
			<g>
				<text transform="matrix(1 0 0 1 163.8846 346.8036)" class="st18 st2 st3">-6 pb</text>
			</g>
			<g>
				<text transform="matrix(1 0 0 1 129.2045 364.8036)" class="st18 st2 st3">-15 pb</text>
			</g>
		</g>
	</g>
	<text transform="matrix(1 0 0 1 203.4917 12.2339)"><tspan x="0" y="0" class="st1 st2 st3">zmena medzi </tspan><tspan x="0" y="9" class="st1 st2 st3">2004–2007 </tspan><tspan x="0" y="18" class="st1 st2 st3">a 2014–2017</tspan></text>
	<line class="st0" x1="203.5" y1="1.8" x2="280" y2="1.8"/>
	<g>
		<g>
			<g>
				<text transform="matrix(1 0 0 1 290.8931 202.666)" class="st17 st2 st3">Nové Mesto</text>
			</g>
			<g>
				<text transform="matrix(1 0 0 1 290.8931 256.6138)" class="st17 st2 st3">Rača</text>
			</g>
			<g>
				<text transform="matrix(1 0 0 1 290.8931 130.7354)" class="st17 st2 st3">Jarovce</text>
			</g>
			<g>
				<text transform="matrix(1 0 0 1 290.8931 112.7527)" class="st17 st2 st3">Petržalka</text>
			</g>
			<g>
				<text transform="matrix(1 0 0 1 290.8931 166.7007)" class="st17 st2 st3">Záhorská Bystrica</text>
			</g>
			<g>
				<text transform="matrix(1 0 0 1 290.8931 148.7178)" class="st17 st2 st3">Devínska Nová Ves</text>
			</g>
			<g>
				<text transform="matrix(1 0 0 1 290.8931 220.6484)" class="st17 st2 st3">Vrakuňa</text>
			</g>
			<g>
				<text transform="matrix(1 0 0 1 290.8931 184.6831)" class="st17 st2 st3">Čunovo</text>
			</g>
			<g>
				<text transform="matrix(1 0 0 1 290.8931 76.7874)" class="st17 st2 st3">Staré Mesto</text>
			</g>
			<g>
				<text transform="matrix(1 0 0 1 291.3218 58.8047)" class="st1 st2 st3">medián</text>
			</g>
			<g>
				<text transform="matrix(1 0 0 1 290.8931 238.6313)" class="st17 st2 st3">Ružinov</text>
			</g>
			<g>
				<text transform="matrix(1 0 0 1 290.8931 292.5791)" class="st17 st2 st3">Dúbravka</text>
			</g>
			<g>
				<text transform="matrix(1 0 0 1 290.8931 94.7698)" class="st17 st2 st3">Rusovce</text>
			</g>
			<g>
				<text transform="matrix(1 0 0 1 290.8931 310.562)" class="st17 st2 st3">Karlova Ves</text>
			</g>
			<g>
				<text transform="matrix(1 0 0 1 290.8931 346.5273)" class="st17 st2 st3">Lamač</text>
			</g>
			<g>
				<text transform="matrix(1 0 0 1 290.8931 328.5444)" class="st17 st2 st3">Podunajské Biskupice</text>
			</g>
			<g>
				<text transform="matrix(1 0 0 1 290.8931 364.5098)" class="st17 st2 st3">Devín</text>
			</g>
			<g>
				<text transform="matrix(1 0 0 1 290.8931 274.5967)" class="st17 st2 st3">Vajnory</text>
			</g>
		</g>
	</g>
	<text transform="matrix(1 0 0 1 291.3218 12.2339)" class="st1 st2 st3">mestská časť</text>
	<line class="st0" x1="291.3" y1="1.8" x2="367.1" y2="1.8"/>
	<line class="st0" x1="377.6" y1="1.8" x2="444.8" y2="1.8"/>
	<path class="st19" d="M416.3,50.8"/>
	<g>
		<text transform="matrix(1 0 0 1 377.3252 12.2339)" class="st1 st2 st3">medián príjmu</text>
	</g>
	<g>
		<text transform="matrix(1 0 0 1 377.3252 30.2339)" class="st1 st2 st3">2004–07</text>
	</g>
	<g>
		<text transform="matrix(1 0 0 1 417.416 30.2339)" class="st1 st2 st3">2014–17</text>
	</g>
	<g>
		<g>
			<g>
				<text transform="matrix(1 0 0 1 378.0869 58.8035)" class="st1 st2 st3">529 €</text>
			</g>
		</g>
		<g>
			<g>
				<text transform="matrix(1 0 0 1 378.0869 364.509)" class="st17 st2 st3">561 €</text>
			</g>
		</g>
		<g>
			<g>
				<text transform="matrix(1 0 0 1 378.0869 346.5266)" class="st17 st2 st3">603 €</text>
			</g>
		</g>
		<g>
			<g>
				<text transform="matrix(1 0 0 1 378.0869 328.5436)" class="st17 st2 st3">458€</text>
			</g>
		</g>
		<g>
			<g>
				<text transform="matrix(1 0 0 1 378.0869 310.5611)" class="st17 st2 st3">559 €</text>
			</g>
		</g>
		<g>
			<g>
				<text transform="matrix(1 0 0 1 378.0869 292.5786)" class="st17 st2 st3">526 €</text>
			</g>
		</g>
		<g>
			<g>
				<text transform="matrix(1 0 0 1 378.0869 274.5956)" class="st17 st2 st3">515 €</text>
			</g>
		</g>
		<g>
			<g>
				<text transform="matrix(1 0 0 1 378.0869 256.6131)" class="st17 st2 st3">506 €</text>
			</g>
		</g>
		<g>
			<g>
				<text transform="matrix(1 0 0 1 378.0869 238.6306)" class="st17 st2 st3">524 €</text>
			</g>
		</g>
		<g>
			<g>
				<text transform="matrix(1 0 0 1 378.0869 220.6476)" class="st17 st2 st3">487 €</text>
			</g>
		</g>
		<g>
			<g>
				<text transform="matrix(1 0 0 1 378.0869 202.6651)" class="st17 st2 st3">532 €</text>
			</g>
		</g>
		<g>
			<g>
				<text transform="matrix(1 0 0 1 378.0869 184.6826)" class="st17 st2 st3">576 €</text>
			</g>
		</g>
		<g>
			<g>
				<text transform="matrix(1 0 0 1 378.0869 166.6996)" class="st17 st2 st3">555 €</text>
			</g>
		</g>
		<g>
			<g>
				<text transform="matrix(1 0 0 1 378.0869 148.7171)" class="st17 st2 st3">519 €</text>
			</g>
		</g>
		<g>
			<g>
				<text transform="matrix(1 0 0 1 378.0869 130.7346)" class="st17 st2 st3">502 €</text>
			</g>
		</g>
		<g>
			<g>
				<text transform="matrix(1 0 0 1 378.0869 112.7516)" class="st17 st2 st3">493 €</text>
			</g>
		</g>
		<g>
			<g>
				<text transform="matrix(1 0 0 1 378.0869 94.769)" class="st17 st2 st3">462 €</text>
			</g>
		</g>
		<g>
			<g>
				<text transform="matrix(1 0 0 1 378.0869 76.7861)" class="st17 st2 st3">617 €</text>
			</g>
		</g>
	</g>
	<g>
		<g>
			<g>
				<text transform="matrix(1 0 0 1 426.9216 58.8035)" class="st1 st2 st3">747 €</text>
			</g>
		</g>
		<g>
			<g>
				<text transform="matrix(1 0 0 1 426.9216 364.509)" class="st17 st2 st3">677 €</text>
			</g>
		</g>
		<g>
			<g>
				<text transform="matrix(1 0 0 1 426.9216 346.5266)" class="st17 st2 st3">807 €</text>
			</g>
		</g>
		<g>
			<g>
				<text transform="matrix(1 0 0 1 426.9216 328.5436)" class="st17 st2 st3">603 €</text>
			</g>
		</g>
		<g>
			<g>
				<text transform="matrix(1 0 0 1 426.9216 310.5611)" class="st17 st2 st3">747 €</text>
			</g>
		</g>
		<g>
			<g>
				<text transform="matrix(1 0 0 1 426.9216 292.5786)" class="st17 st2 st3">707 €</text>
			</g>
		</g>
		<g>
			<g>
				<text transform="matrix(1 0 0 1 426.9216 274.5956)" class="st17 st2 st3">695 €</text>
			</g>
		</g>
		<g>
			<g>
				<text transform="matrix(1 0 0 1 426.9216 256.6131)" class="st17 st2 st3">703 €</text>
			</g>
		</g>
		<g>
			<g>
				<text transform="matrix(1 0 0 1 426.9216 238.6306)" class="st17 st2 st3">738 €</text>
			</g>
		</g>
		<g>
			<g>
				<text transform="matrix(1 0 0 1 426.9216 220.6476)" class="st17 st2 st3">687 €</text>
			</g>
		</g>
		<g>
			<g>
				<text transform="matrix(1 0 0 1 426.9216 202.6651)" class="st17 st2 st3">752 €</text>
			</g>
		</g>
		<g>
			<g>
				<text transform="matrix(1 0 0 1 426.9216 184.6826)" class="st17 st2 st3">820 €</text>
			</g>
		</g>
		<g>
			<g>
				<text transform="matrix(1 0 0 1 426.9216 166.6996)" class="st17 st2 st3">795 €</text>
			</g>
		</g>
		<g>
			<g>
				<text transform="matrix(1 0 0 1 426.9216 148.7171)" class="st17 st2 st3">758 €</text>
			</g>
		</g>
		<g>
			<g>
				<text transform="matrix(1 0 0 1 426.9216 130.7346)" class="st17 st2 st3">751 €</text>
			</g>
		</g>
		<g>
			<g>
				<text transform="matrix(1 0 0 1 426.9216 112.7516)" class="st17 st2 st3">751 €</text>
			</g>
		</g>
		<g>
			<g>
				<text transform="matrix(1 0 0 1 426.9216 94.769)" class="st17 st2 st3">719 €</text>
			</g>
		</g>
		<g>
			<g>
				<text transform="matrix(1 0 0 1 426.9216 76.7861)" class="st17 st2 st3">990 €</text>
			</g>
		</g>
	</g>
	<g>
		<g>
			<g>
				<text transform="matrix(1 0 0 1 407.3818 364.5092)" class="st17 st2 st3">→</text>
			</g>
		</g>
		<g>
			<g>
				<text transform="matrix(1 0 0 1 407.3818 346.5266)" class="st17 st2 st3">→</text>
			</g>
		</g>
		<g>
			<g>
				<text transform="matrix(1 0 0 1 407.3818 328.5436)" class="st17 st2 st3">→</text>
			</g>
		</g>
		<g>
			<g>
				<text transform="matrix(1 0 0 1 407.3818 310.5611)" class="st17 st2 st3">→</text>
			</g>
		</g>
		<g>
			<g>
				<text transform="matrix(1 0 0 1 407.3818 292.5786)" class="st17 st2 st3">→</text>
			</g>
		</g>
		<g>
			<g>
				<text transform="matrix(1 0 0 1 407.3818 274.5956)" class="st17 st2 st3">→</text>
			</g>
		</g>
		<g>
			<g>
				<text transform="matrix(1 0 0 1 407.3818 256.6131)" class="st17 st2 st3">→</text>
			</g>
		</g>
		<g>
			<g>
				<text transform="matrix(1 0 0 1 407.3818 238.6306)" class="st17 st2 st3">→</text>
			</g>
		</g>
		<g>
			<g>
				<text transform="matrix(1 0 0 1 407.3818 220.6476)" class="st17 st2 st3">→</text>
			</g>
		</g>
		<g>
			<g>
				<text transform="matrix(1 0 0 1 407.3818 202.6651)" class="st17 st2 st3">→</text>
			</g>
		</g>
		<g>
			<g>
				<text transform="matrix(1 0 0 1 407.3818 184.6826)" class="st17 st2 st3">→</text>
			</g>
		</g>
		<g>
			<g>
				<text transform="matrix(1 0 0 1 407.3818 166.6996)" class="st17 st2 st3">→</text>
			</g>
		</g>
		<g>
			<g>
				<text transform="matrix(1 0 0 1 407.3818 148.7171)" class="st17 st2 st3">→</text>
			</g>
		</g>
		<g>
			<g>
				<text transform="matrix(1 0 0 1 407.3818 130.7346)" class="st17 st2 st3">→</text>
			</g>
		</g>
		<g>
			<g>
				<text transform="matrix(1 0 0 1 407.3818 112.7516)" class="st17 st2 st3">→</text>
			</g>
		</g>
		<g>
			<g>
				<text transform="matrix(1 0 0 1 407.3818 94.769)" class="st17 st2 st3">→</text>
			</g>
		</g>
		<g>
			<g>
				<text transform="matrix(1 0 0 1 407.3818 76.7861)" class="st17 st2 st3">→</text>
			</g>
		</g>
		<g>
			<g>
				<text transform="matrix(1 0 0 1 407.3818 58.8035)" class="st1 st2 st3">→</text>
			</g>
		</g>
	</g>
	<path class="st4" d="M445.6,397.6"/>
	<g>
		<g>
			<text transform="matrix(1 0 0 1 407.3818 30.2327)" class="st1 st2 st3">→</text>
		</g>
	</g>
	<g>
		<g>
			<path class="st20" d="M105.3,32c0,0.1,0-0.2,0.2,0.4l0.1,0.1c0.1,0.1-0.1,0.1,0.4,0.8l0.2,0c-0.1,0,0.4,0.9,1,1.6
				c0.4,0.2,0.5,0.3,1.2,1l0.3,0l0.1,0.3c0,0.1,0.4-0.1,0.8,0.8c0,0.3-0.2,0.1,0.4,0.9l0,0.3l0.1,0.1c-0.1,0.1,0.2-0.1,0,0.7
				l0.2,0.2c1.9,2.3,3.9,4.8,6.7,7.7l0.3-0.1l0.2,0.8l-0.4,0.1c2.5,5.6,3.6,11.5,4.5,18.6l0.8,0l0.2,2.2l-1,0.1l0,0.1
				c5.8-0.2,11.6-1.3,18.4-1.8c-0.4-0.4-0.1-2.9,2.1-2.2c0.1,0,0.1-1.1,0.3-2.2c0.4-0.1,0.3,0.1,1.2-0.6c-4.8-8.9-13-16.5-21.3-23.9
				l-0.2,0c-0.7-0.4-1.5-1.2-2.6-2.1c0-0.1-0.1,0.2-0.9-0.2c-0.1-0.3-0.6-0.4-1.4-1.3c-0.4-0.2-1.1,0.2-2.1-1l-0.2,0.1
				c-0.1-0.1,0.1,0.1-0.7-0.2l-0.1-0.2l-0.2-0.1l-0.2,0c0-0.1,0,0.1-0.4-0.3l-0.2-0.1l-0.3-0.5c-0.3-0.1-2.4-1.7-2-3.5l-0.2-0.3
				c0-0.2,0.1-0.1-0.2-0.8C108.1,27.3,108,31,105.3,32z"/>
		</g>
		<g>
			<path class="st21" d="M17.4,70.1c1,3.3-1.1,7-0.2,11.4c6.3,5.8,14.5,10.5,20.9,17.3l0.7-0.5c-0.6-1.2-1-1.5-2.9-3.5l0-0.3
				l0.4-0.1c0.1,0,0-0.9,0.9-1c2.1,1.4,4.8,6.1,8.4,3.4c0.3,0.1,0,0,0.9,0.3l0-0.2c0.2-0.4,0,0,0.6-1.6l0.8,0.1c0,0-0.1-0.1,0.2-0.6
				l0.3,0l0.1-0.1l0.1-0.4c0.1,0-0.1,0.1,0.5,0c0-0.1-0.1-0.2,0-1l0.6,0.1c-0.2-0.3,0.9-1.2-0.2-2.5l0.3-0.2l0.4,0.6l0.7,0.2l0-0.4
				L50.6,91c0.1-0.1-0.2,0.1,0.1-0.5l0.3-0.1l-0.1-0.2c0.1-0.2,0.3,0.1,0.6-0.8c-0.4-0.1-0.2-0.8-1.9-1.1l0-0.4L49,87.4l0.2-1
				l0.2,0.1l0.1-0.1l0.8,0.6l0.1-0.1c0.1,0.1-0.5-0.5-0.1-1l0.1,0l0-0.1l0.1-0.1l0.1-0.3l0.2,0l0.1-0.2c-0.1-0.1,0.1,0.1-1.6-0.9
				c0.1,0-0.2,0,0.3-0.7l0.1-0.1c0.5,0.3,0.7,0.3,1.9,1.2l0-0.4c-0.5-0.8-1.1-1.6-3.2-2.9l0.1-0.2l0.2,0.1c0,0-0.1,0,0.1-0.3
				l0.6,0.1l0-0.2l0.5,0.1l0.1-0.2c-0.1-0.1,0.3,0.2-0.4-1c0.1,0-0.2,0-0.6-0.4c0,0-0.1-0.1-0.5,0c-0.1,0,0-0.3-1.1-0.1l-0.1,0.2
				c0,0.1-0.1-0.1-0.5,0.1l-0.6-0.3l-0.3,0.3c-0.1-0.1,0,0.2-0.9-0.1l-0.1-0.1l0.1-0.4c0.2,0.1-0.6-0.2-1.4-0.2
				c0.1,0.2,0.1,0.9,0.4,1.8c-0.1,0-0.1,0.1-0.5,0l-0.2-0.3l-0.5-0.2c0.1,0.1-0.2-0.5,0-1.1c-0.3-0.2-0.1-0.2-1.3-1.4L41.5,78
				c-0.1,0.2-0.8,0.2-1.2,1.4l-0.1,0.1c-0.1,0,0.1,0.8-0.8,1.2c0-0.1-0.1-1-0.5-1.7l-0.1,0l-0.5-0.6c-0.3-0.8-0.2-1.2-1.6-2.6
				l-0.3,0.1c-0.4-0.8-1.3-1.6-1.9-3.1l0.8-0.6c0.1-0.1,0.3,0.3,1.1,0c0.1,0-0.2-0.1-0.5-0.8l-0.9,0l-0.3-0.2l-1,0.2
				c0,0.1-0.1-0.2-0.6-0.3c-0.9-0.9-0.6-0.5-3.2-2.2c-0.4-0.6-0.3-1.8-1.5-2.9c-0.1,0.1-0.2,0-1.1,1.1l0.3,0.7
				c-0.3,0.2-0.4,0.9-1.6,1.4c-1.1-1.6-2.3-2.8-5.3-3.4l-0.3,0.4C20.1,66,20.4,66.4,20,67c0,0.3,0.2,0.3-0.2,2.3l-0.5,0.7
				C19.2,69.9,18.6,70.1,17.4,70.1z"/>
		</g>
		<g>
			<path class="st22" d="M91.2,58.8c-0.4-0.7-3.4-1.6-2.1-3.5l0.5,0.6c0.1-0.1,0,0.1,2-1.6c-0.7-1.6-2-3.5-3.4-5.9
				c-0.3-0.1-0.3,0-0.9-0.6c0-0.1,0.2,0.1,0.3-0.7l0.6-0.3l0-0.2c-0.4-0.3,0.2,0.1-0.8-1.4c-0.1-0.2,0.3,0.3-0.1-1.2
				c-0.2-0.1-0.1-0.1-1.1-0.9c-0.3-0.6-0.6-1.3-2-2.3c-0.2-0.1,0.2-0.4-0.8-0.9l-0.1,0l0.1,0.1c-0.1,0.2,0,0.1-0.5,0.4l0,0.1
				l-0.1,0.1l0,0.1l-0.2-0.1c0,0,0,0-0.1,0.2c0,0,0,0-0.2,0.1l-0.2,0.4l-0.1,0c0,0,0,0-0.1,0.1c0,0,0,0,0.2,0.2l0,0l0,0l-0.1,0.1
				l0,0.1l0.1,0.1c0,0,0,0-0.3,0.6c0,0,0.1,0-0.1,0.3c0,0.2-0.1,0-0.2,0.7c-0.3,0.2-0.4-0.2-1.1,0.6l0-0.1l-0.3,0l0-0.2L80,43.7
				c-0.1-0.1,0-0.2-0.5-0.3l-0.1,0l-0.1-0.1l0,0l-0.2,0.1l0-0.1c0,0,0,0-0.1,0c0-0.1,0-0.1-0.1-0.3l-0.1,0.2c0,0-0.2,0-0.7-0.4
				c-0.1,0,0,0-0.4,0.1l-0.2-0.1c-0.1,0,0,0.4-0.5,0.5c0,0,0,0.1-0.2,0.3c0,0,0.1,0.1-0.2,0.4l0,0.1l-0.1,0.2l-0.1,0l0,0.1
				c0,0,0-0.1-0.4,0.1l-0.1,0.3l-0.2-0.1l0,0.2c0.1,0-0.2,0-0.5,0l-0.2-0.2c0,0,0,0-0.2,0l0-0.1l-0.1,0l0-0.2c-0.1,0,0,0.1-0.3,0
				l0-0.1L74,44.3l-0.2-0.1l-0.4,0l0,0.2l-0.1,0.1c0,0.1,0,0,0,0.5c-0.1,0.1,0,0-0.2,0.5l0.1,0.1c0,0.1-0.3,1.2,0.5,1.5l0.1,0.3
				c0,0-0.1,0.1-0.9,0.1c-0.8-1.2-1.7-2.9-4.1-3c-0.4-0.1-1-1-2.5-1c-0.2,0.3-1.9,0.8-2.8,2c1,3.8-5.2,8.4-1.6,13.4l-0.4,0.8
				c-0.2,1,0.9,1.1-0.9,2.8l0.1,4.7c0.1-0.1,0.2,0,0.9-0.2l0.4,0.1l-0.4,0.6l0.4,0.7c0,0.1,0.1-0.1,0.6,0.3l-0.2,0.9l0.3,0.4l0,0.1
				c0.4,0.5,0.5,0.7,1.1,2.2c-0.1,0,0.1,0.1-0.8,0.4c0.1,0.3,0,0.2,0.5,0.8l-0.1,0.4c-0.2,0,0,0-1,0.4c-0.1-0.1,0,1-1,1.6
				c-0.1,0.3,0,0.1-0.5,0.9l1,0.6l0.2,0c0.3,0.4,0.1,0.3,1.3,1l0.4-0.2l0.6,0.4l0,0.4c3.7,2,4.6,8.6,10.4,9c0.5-0.2,1.3,0.3,3.2,0.5
				l0,0.1c1.4,0.1,2.4,1.4,4.3,2.7c0.7,0.3,1.4,0.3,2.8-0.4l0.2,0.2l0,0.1l0.4-0.3l0.1,0.1l0.3,0c0,0.1,0.4,0.4,0.8,1l0.6,0.4l0,0.1
				l0.6-0.2l0.4,0.3l0.1-0.1c0.1,0.1,1.4,0.6,2.3,1.1c0.2-0.2,0.7-0.7,1.6-1.8l0.2,0.1l0.1-0.2c0.8,0.2,2.8-0.1,4.5-1.3l0-0.1
				c0.3-0.2,0.4-0.3,1.3-0.8l0.1,0c-0.1,0,0.3,0,1-0.7c4.6-2,9.1-6.3,12.3-11.4l0-0.1c1.1-1.6,2.3-4.2,3.9-6.6l-0.3-0.1
				c1.2-0.9,3.6-1.9,6.3-1.7l0-0.1l1-0.1l-0.2-2.2c-8,0.8-18.1,3.2-26.5,4.3l-0.3-0.6c-0.7-0.5-1.3-0.5-3.4-1.5c0-0.1,0.6-1,0.9-1.8
				c1.2-0.8,2.4-2.8,2.5-5l-0.2-0.2c-0.7,0-2.4,0.1-3.5-1.3l0.1-0.3C92.2,60,92.2,59.3,91.2,58.8z"/>
		</g>
		<g>
			<path class="st23" d="M83.5,39.8l0.1,0c-0.1,0.1,0.6,0,0.8,0.9c0.3,0.3,1.4,1,2,2.3c0.1,0,0.2,0.2,1.1,0.9
				c-0.1,0.1,0.3,0,0.1,1.2c0-0.1,0.3,0.5,0.8,1.4l0,0.2l-0.6,0.3c-0.1,0.1,0.3,0-0.3,0.7c0-0.1,0.1,0.3,0.9,0.6
				c1,1.8,2.2,3.1,3.4,5.9c-0.2,0.2-0.4,0.4-2,1.6l-0.5-0.6c-1.1,1.8,1.1,2.2,3,4.5l-0.1,0.3c0.7,0.6,1.5,1.4,3.5,1.3l0.2,0.2
				c-0.3,1.6-0.3,3.3-2.5,5c-0.2,0.7-0.3,0.3-0.9,1.8c0.5,0.6,1.5,0.4,3.4,1.5l0.3,0.6c8.3-1.1,16.6-3.1,25.6-4.2
				c-0.7-5.6-1.7-12.4-4.5-18.6l0.4-0.1l-0.2-0.8l-0.3,0.1c-2-2.2-4.4-4.8-6.7-7.7l-0.2-0.2c-0.1-0.1,0.2,0.1,0-0.7l-0.1-0.1l0-0.3
				c0.1,0-0.4-0.3-0.4-0.9c-0.1,0.1,0-0.5-0.8-0.8l-0.1-0.3l-0.3,0c-0.3-0.2-0.2-0.6-1.2-1c-0.2-0.6-0.5-0.1-1-1.6l-0.2,0
				c0-0.1-0.2,0-0.4-0.8l-0.1-0.1c-0.1,0,0.1-0.1-0.2-0.4l-0.4,0.1c-0.9-0.5-1.8,0.2-3.4-1.2c0,0,0,0.1-0.5-0.1
				c-0.7-0.5,0.5-1.6-1.2-2.7c-0.4,0-0.4,0.2-2,1.3c-0.3,0.3-1.7-0.8-2.9-0.4c-0.1-0.1-0.1,0-1.1-0.2l-0.4,0.1l-0.2-0.1L93,28.9
				l-0.4-0.1l-0.1-0.2l-0.4,0.1L92,28.9l-0.5-0.1c0.1,0.1-0.6,0-1,0.8l-0.2-0.1l-0.1-0.2L90,29.5l-0.2-0.2l-0.2,0l-0.3,0.2l-0.1,0.4
				c-0.1,0-0.1,0.1-0.5,0c0,0-0.2,0-0.8,0.3c-0.1,0,0-0.1-0.6,0l-0.2,0.6l-0.4,0c-0.1,0.2,0,0.2-0.5,0.6c0,0,0.1,0.2-0.3,0.7l-0.3,0
				l-0.1,0.1c0,0.1-0.2-0.1-0.5,0.2l-0.3,0l-0.4,0.3c-0.2,0.1-0.4-0.1-1.6-0.2l-0.5,0.3l0,0.4l0.2,0c0,0,0.1,0,0,0.8l-0.2,0.2
				c-0.1,0.1,0.3-0.1-0.2,0.7l0.1,0.1c0,0,0.1,0-0.1,0.8l-0.1,0c-0.1,0.1,0,0.2-0.1,0.8l0.2,0.2l0,0.7l0.1,0.2l0,0.2
				c0.1,0-0.1,0.1,0.4,0.5l0,0.3C83,39,82.8,38.9,83.5,39.8z"/>
		</g>
		<g>
			<path class="st22" d="M146.6,102.1c0-0.3,0,0,0.1-1.2l-0.1,0l0.7-1.9l-0.6-1c0.2-0.3,0.1-0.1,0.5-1l-0.2-1.6
				c-0.3-0.1-1.6-0.6-2.4-2.2c-0.1,0,0.2-0.1,0.8-0.8l0-0.4c-0.1,0,0-0.1-0.5-0.4l0.2-0.2c-0.2-0.7,0.3-1.2-0.4-3
				c-0.2,0,0-0.3-0.8-0.1l-0.2-0.1c0-0.1-0.1-0.1,0.2-0.6l-0.1-0.2l-0.4-0.2c-0.3,0-0.2,0.7-1.9,0.4c0,0.1,0-0.3,0.5-0.9
				c0-0.2,1.4-2.5,1.1-2.5c-6.4,0.1-14.2,4.2-20.1,6.7l-0.3-0.3l-1.3,0.3c0,0.3,0,0-0.3,1c0.8,0.5,2.5,2.1,0.5,3.6l-0.1-0.2
				c-0.9-0.3-3.5,0.3-3.4,2.5c1.6,0.6,2.7,3.4,4.7,4.6c0.4,0.4,0.7,0.9,1.7,2.7c0.3-0.2,0.8-0.7,1.7-1.5l0.8,0.5
				c0.2-0.2,0.3-0.8,1.1-1.5l0.9,0.2c-0.2,0.2,0.7-0.2,0.2,1.3l-0.2,0c0.1-0.1-0.3,0.4,0.1,0.9l0.2,0c-0.1,1,0.5,2.1,2,4.4
				c0.8-0.3,2.9-2.3,4.7-2.8c0.3,0.4,0.2,0.4,0.7,1.7c1.7-1.3,6.4-4.4,9.1-5.8C146.2,102.3,146.1,102.4,146.6,102.1z"/>
		</g>
		<g>
			<path class="st24" d="M8.3,13.4L8.3,13.4l0.9,0.2c0-0.1,0,0.7,0.1,2l0.2,0l0.1,0.2L9.8,16c0.2,0,0-0.1,0.5,0.1l0,0.2l0.2,0
				l-0.1,0.3l0.3,0.1l0,0.2l0.2,0c3.1,2.9,5.7,8.5,8.7,13.1c0.6-0.3,1.9-1.2,3-1.9c0.3,0.5,1,1.9,1.6,3.1c-0.1,0,0.2-0.1,1-0.5
				c1.3,2.7,2.9,5.8,4.5,9c0.5-0.1,1.3-1.4,3.2-1.2c0.4,1.9,1.2,4.1-0.4,6.9l0,0.1c-0.3-0.1,1,0.1,1.6-0.8
				c8.8,2.4,4.8-0.7,13.7,10.2l0.5,0c0.3,0.4,0.2,1.1,1.2,2.2c0.3,2.7,2.6,0.5,4.9,4.7l0.3,0l0.2,0.3l0.5,0c0.2,0,0.2-0.4,0.9-0.6
				c0.2-0.2-0.1,0,0.5-0.8c-0.1,0,0.2,0.1,0.6-0.1c0-0.1-0.1-0.3,0.3-1.3c0-0.3-0.5-0.1-0.2-1.2c0-0.1,0.2,0,0.6-0.8
				c-0.2-0.8,0.1-1.9,0.1-3.7c-0.1-0.1-0.1-0.2-1.2-2.1c0-0.2-0.2-1,1-1.5c0.4-0.1,0.8-0.3,1.7,0.4c0.1,0.1,0-0.7,0.9-1l0.6,0.2
				l0.3-0.1c0.3,0.1,0.2,0.2,1.2,0.4c0.1-1.2,2-2.5,1.1-4.6c0.8-0.9,0.5-0.6,2.8-2c0.7,0,1.1-0.1,2.5,1c1.4,0,3.1,1,4.1,3
				c0.1,0,0,0.1,0.9-0.1L73.8,47c-0.4-0.2-0.7-0.9-0.5-1.9l0.1-0.1c0,0,0,0,0-0.5l0.1-0.1l0-0.2l0.4,0l0.2,0.1l0.2-0.1l0,0.1
				c0,0,0.1,0,0.3,0l0,0.2l0.1,0l0,0.1c0,0,0,0,0.2,0l0.2,0.2c0.2,0,0,0,0.5,0l0-0.2l0.2,0.1l0.1-0.3c0,0,0-0.1,0.4-0.1l0-0.1l0.1,0
				l0.1-0.1l0-0.1c0,0,0.1,0,0.2-0.4c0.1-0.1,0.1,0,0.2-0.3c0.1,0,0.3,0,0.5-0.5l0.2,0.1c0,0,0.1,0,0.4-0.1c0.1,0,0,0.1,0.7,0.4
				l0.1-0.2c0,0,0,0.1,0.1,0.3c0,0,0,0,0.1,0l0,0.1l0.2-0.1l0,0l0.1,0.1l0.1,0c0,0,0.2-0.1,0.5,0.3l0.2-0.1l0,0.2l0.3,0l0,0.1
				c0,0.1,0.4-0.6,1.1-0.6c-0.1,0,0.2-0.6,0.3-1c0.1-0.1,0,0,0.3-0.6l-0.1-0.1l0-0.1l0.1-0.1l0,0l0,0l-0.1-0.1l-0.1,0
				c0,0,0,0,0.1-0.1l0.1,0l0.2-0.4c0.1,0,0,0,0.2-0.1c0,0,0,0,0.1-0.2l0.2,0.1l0-0.1l0.1-0.1l0-0.1c-0.1,0,0.3-0.1,0.5-0.4
				c-0.2,0-0.2-0.4-0.9-1.1l0-0.3c0-0.1-0.1,0.1-0.4-0.5l0-0.2l-0.1-0.2l0-0.7L82,36.6c0.1-0.1,0-0.2,0.1-0.8l0.1,0
				c0-0.1,0.1,0,0.1-0.8l-0.1-0.1c-0.1-0.1,0.2,0,0.2-0.7l0.2-0.2c0-0.1,0.1,0,0-0.8l-0.2,0l0-0.4l0.5-0.3c0.2,0,0.5,0.1,1.6,0.2
				l0.4-0.3l0.3,0c0.1-0.1,0-0.1,0.5-0.2l0.1-0.1l0.3,0c0.1-0.2,0.2-0.1,0.3-0.7c-0.1-0.1,0.3,0,0.5-0.6l0.4,0l0.2-0.6
				c0,0,0-0.1,0.6,0c0.2-0.1,0.1-0.1,0.8-0.3c0-0.1,0.1,0.1,0.5,0l0.1-0.4l0.3-0.2l0.2,0l0.2,0.2l0.2-0.1l0.1,0.2l0.2,0.1
				c0.3-0.1-0.2-0.4,1-0.8l0.5,0.1l0.1-0.2l0.4-0.1l0.1,0.2l0.4,0.1l0.2-0.1l0.2,0.1l0.4-0.1c0,0.1,0.3,0,1.1,0.2
				c0.4-0.2,0.3,0.1,1.1-0.5c0.3-0.6,0.3-1.6,0.9-3.1c-1.4,0.3-3.5-1.4-5.5,0.6c-3.1,1.6-1.8,3-8.4-0.6c-1.2-0.5-3.6-0.8-5.8-1.6
				L77,24.1l-0.7,0c-0.2,0.4-0.1,0.4-0.8,1.5c-0.3,0.1-0.4,0.1-1.3,0.4C73.9,26,72.9,25,71.8,25l-0.3-0.5L71,24.3l-0.1-0.2
				c-0.1,0.2-0.5-0.4-1.6-0.5l0,0.4c0,0,0.6,0.5,0.6,1.6l-0.1,0.1l-0.4-0.1c0,0.8,0.4,1.8-0.4,3.2c-0.3,0.2-1.6,0.1-1.8,1.8L67,30.8
				c-0.1,0.2-0.1,0.8-0.2,1.6c0.2,0.5,0.3,0.2,0.2,1.5c-0.4,0.2,0-0.1-1.4,0.2c0-0.1-0.1,0-1.1-0.8l-0.4,0c-0.5-0.6-1.8-1.6-1.3-3.6
				l-0.4-0.5c-0.1-0.1-0.1,0.1-0.9-0.4c-0.6-0.1-2.2,0.4-3.4-0.4l-0.1-0.3l-0.3,0l-0.1-0.1l-0.2,0.1c0,0-0.1,0.1-0.6-0.3l-0.3,0.1
				c-0.4-0.7-2.8-0.1-4.4-1.4c-0.3-0.6-0.7-1.8-1.1-3.4l0.6-0.6l0-0.1L51,21.9c-0.3,0.2-0.1,0-0.7,0.7c-0.6,0.3-1.9,0.1-3.9,0.4
				l-0.3-0.4c-0.2,0.1-0.9,0.4-2.4,0.7l-0.3-0.6c0,0.2-0.3-0.3-2.4,0.6c0,0,0,0.1-0.6-0.2c-0.2-0.1,0.2,0.2-0.9,0.2
				c0,0,0,0.1-0.3,0.7l-0.7,0.3l-0.1,0.2l0,0.3c-3.2-1-5.9-2-10.1-2.4l0.2-0.6c-0.6,0-0.3-0.6-2.1-0.5l0,0.2c-0.3,0-0.7,0.1-2.2,0.2
				l-0.1-0.4c0.1,0-0.3,0-1.1,0.2c0.1,0-0.2-0.2-0.3-0.9l-0.4,0.2c-2.1-2.4-4.5-5.3-7.9-7.8c-1,0.3-3.5-0.7-5.5-1.1
				C8.6,12.3,8.7,12.1,8.3,13.4z"/>
		</g>
		<g>
			<path class="st25" d="M8.3,13.4L8,13.3C4.6,21.2-2.2,33.9,8.1,40.8c3.2,9,5.9,19.2,9.3,29.3c0.2-0.1,0.6,0.1,1.9-0.2l0.5-0.7
				c-0.1-0.1,0.3-0.1,0.2-2.3c0.1-0.3,0.2-0.1,0.2-0.9l0.3-0.4c1.7,0.5,3.7,0.9,5.3,3.4c0.4-0.1,0.8-0.4,1.6-1.4L27.2,67
				c0.1-0.1,0-0.2,1.1-1.1c0.6,0.4,1,1.4,1.5,2.9c0.2,0.3,1.9,1.1,3.2,2.2c0.2,0.1,0.1-0.1,0.6,0.3l1-0.2l0.3,0.2l0.9,0l0-0.2
				c0.1,0-1.2-1.2-1-2.3c0.8-0.4,1.1-1.8,0.7-3.4l0.1-0.2c-0.4-1.4,0.4-3.4-2-4.9l-0.7,0.2l-0.2-0.2c-0.2-0.1,0.3-0.2-0.8-1.3
				L31.6,59c0.1-0.2-0.2,0,0.8-1.3c1.7,0.1,3.8,0.4,6.8,0.5l0.2,0.5c0.2,0,0.5-0.1,1.4-0.2l0.1-0.2c0.2,0,0.3-0.1,1.5,0.1l0.1-0.1
				c0.6,0.1,0.8,0,2.7,0.2l-0.9-0.7c-2.1-1.4-4-3.2-7.1-6.1c-0.1-0.7-0.1-1.9-1.2-3.3l0.1-0.1l-0.7-0.8c0.4-0.5,0.6-0.9,1.7-1.9
				c0,0.1-1.5,0.1-2.9-0.8c-0.5,0.5-0.1,0.5-1.6,0.8l0-0.1c0.8-1.5,1.4-4.1,0.4-6.9c-0.9-0.1-1.3-0.1-3.2,1.2
				c-0.8-1.6-3.3-6.7-4.5-9c-0.3,0.2,0,0-1,0.5c-0.3-0.7-0.9-1.8-1.6-3.1c-0.9,0.5-1.5,0.9-3,1.9c-2.8-4-4.5-8.9-8.7-13.1l-0.2,0
				l0-0.2l-0.3-0.1l0.1-0.3l-0.2,0l0-0.2c0,0.1-0.1-0.1-0.5-0.1l-0.2-0.1l-0.1-0.2l-0.2,0c0-0.6,0,0.1-0.1-2L8.3,13.4L8.3,13.4z"/>
		</g>
		<g>
			<path class="st26" d="M62.6,50c0.1-0.1-0.3,0.1-1.2-0.4l-0.3,0.1l-0.6-0.2c-0.2,0.2-0.4-0.2-0.9,1c-0.2,0.1-0.7-0.9-1.7-0.4
				c0,0.3-1.1,0.2-1,1.5c0.2,0.3-0.1-0.1,1.2,2.1c0.1,0.7-0.4,2.1-0.1,3.7c-0.1,0.1,0.1,0.1-0.6,0.8c0.1,0-0.4,0.5,0.2,1.2
				c0,0.1-0.2,0.2-0.3,1.3c-0.2,0.1,0,0.1-0.6,0.1c0,0-0.2,0.3-0.5,0.8c-0.2,0-0.3,0.2-0.9,0.6l-0.5,0l-0.2-0.3l-0.3,0
				c-0.5-2.5-4.1-2.1-4.9-4.7c-0.3-0.1-0.7-1-1.2-2.2l-0.5,0c-3.7-2.6-4.8-9.8-10.8-9.4c-0.3,0.3-1,0.9-1.7,1.9l0.7,0.8l-0.1,0.1
				c0.3,0.7,1.2,1.3,1.2,3.2c2,1.8,4.3,4.1,7.2,6.2l0.9,0.7c1.4,0.4,4.9,1.2,4.9,3.9c0.9,2.3,0.6,6.4,2.5,9.3
				c0.1,0.9,1.4,1.9,2.8,2.9c0-0.1,0,0.2,0.4,0.8l0.5,0.2l0.4-0.1c1.1,0.6,1.3,0.2,3.5,2.4c0.6-0.6,0.5-0.7,1.4-2.1
				c0.3-0.3,0.5-0.1,1-1.6c0,0,0-0.1,1-0.4l0.1-0.4c0.1,0-0.3-0.1-0.5-0.8c0-0.1,0.1,0.1,0.8-0.4c-0.3-0.4-0.1-0.8-1.1-2.2l0-0.1
				l-0.3-0.4l0.2-0.9c-0.1,0,0.2-0.1-0.6-0.3l-0.4-0.7l0.4-0.6l-0.4-0.1c0,0.1-0.3,0-0.9,0.2l-0.1-4.7c0,0,1.5-1.3,0.9-2.8l0.4-0.8
				C60.5,56.9,60.8,52.9,62.6,50z"/>
		</g>
		<g>
			<path class="st27" d="M35.7,71.2c0.1,0.3,0,0,0.5,0.8c-0.1,0-0.3,0.2-1.1,0l-0.8,0.6c0.3,0.8,1,1.8,1.9,3.1l0.3-0.1
				c0.1,0.1,1.3,1.3,1.6,2.6l0.5,0.6l0.1,0c0.1,0.5,0.4,0.5,0.5,1.7c0.1-0.2,0.7,0,0.8-1.2l0.1-0.1c0.2-0.2,0.1-0.8,1.2-1.4l0.3-0.5
				c0.1,0,0.3,0.4,1.3,1.4c-0.1,0.3-0.1,0.1,0,1.1l0.5,0.2l0.2,0.3c0-0.1,0.1,0.1,0.5,0c0-0.4-0.3-0.6-0.4-1.8c0.6,0,0.2,0,1.4,0.2
				l-0.1,0.4l0.1,0.1c0-0.1,0.1,0.2,0.9,0.1l0.3-0.3l0.6,0.3c0.1,0,0.1-0.1,0.5-0.1l0.1-0.2c0,0.1,0.1-0.3,1.1,0.1
				c0.1,0,0-0.1,0.5,0c0.2,0.2,0,0.2,0.6,0.4c0,0.1,0.1-0.1,0.4,1L50.2,81L49.7,81l0,0.2L49.1,81c0,0,0,0-0.1,0.3l-0.2-0.1l-0.1,0.2
				c0.3,0.3,0.8,0.5,2.4,1.8L51,82.6c0.5,0,1.6,0.2,2.9,0.3l0-0.3l0.2-0.1l0.1-0.3l0.2,0.1l0-0.3c0.1,0.1-0.1-0.2,0.9,0.4
				c0.1-0.4-0.2-0.6,0-1.8c0,0,0.1-0.1,0.3-0.2c0.1-0.1-0.2,0.1-0.2-0.9l0.3-0.1c0-0.1,0,0,0.1-0.5c0.1,0.1,0-0.2,0.7,0.3l0.1,0.3
				l1.2,0.5l0,0.1l0.4,0.4l0.2,0l0.2-0.2l-0.2-0.5l0.3-0.8l0.6,0.2l0.3-0.3c0.3,0,0.2,0.1,1.1-0.2l0-0.2c-0.7-0.9-1.5-2.1-4.2-3.3
				l-0.4,0.1l-0.5-0.2c-0.1-0.2-0.1-0.1-0.4-0.8c-0.6-0.5-2.4-1.4-2.8-2.9c-1.7-2.7-1.4-5.5-2.5-9.3c-0.3-2.9-3.8-4.2-7.6-4.1
				l-0.1,0.1c-0.1,0-0.4-0.1-1.5-0.1l-0.1,0.2c-0.2,0-0.5,0.1-1.4,0.2l-0.2-0.5c-1.7-0.1-3.8-0.2-6.8-0.5c0.1,0.2-0.6,0.5-0.8,1.3
				l0.2-0.1c-0.1,0.1,0.4-0.1,0.8,1.3l0.2,0.2l0.7-0.2c1.3,0.9,1.9,1.9,2,4.9l-0.1,0.2c0,0.6,0.8,2.6-0.7,3.4c0.1,0.7-0.2,1,1,2.3
				L35.7,71.2z"/>
		</g>
		<path class="st28" d="M167.4,122.3c0.6-1,0.7-1.1,1.7-2.8c-0.3-0.4-0.7-0.7-1.3-2c-2,0.9-4.6,0-7.5-0.3c-1.4-2.7-0.8-9.1-5.7-9.7
			l0-0.6c-1.2-0.2-3.7-0.5-5.8-0.9c-0.3-1-0.2-2.3-1.8-3.9c-0.1-0.1-0.2,0-1,0.2c-2.7,1.5-6.2,3.7-9.1,5.8c-0.1-0.2-0.1-0.7-0.7-1.7
			c-1.8,0.6-1.7,1-4.7,2.8c-0.3-0.8-2.1-2.2-2-4.4l-0.2,0c-0.1-0.3-0.3-0.2-0.1-0.9l0.2,0c-0.2,0.1,0.6-0.5-0.2-1.3l-0.9-0.2
			c-0.3,0.2-0.5,0.5-1.1,1.5l-0.8-0.5c-0.4,0.3-0.8,0.7-1.7,1.5l0-0.1c-0.8,0.8-1.5,2-3.4,3.2l0,0.1c0.4,0.3,0.1,0.1,0.9,1.3
			l-0.1,0.3l0.3,0.3l0.1,0.4c-0.2,0.3-0.4,0.7-1,1.6l0.1,0.4l0.2,0l0.4,1l2-0.1c0.2,0.2,0.3,0.6,1.1,1.5l0.7,14.9l-10.9,0.5
			c-0.2,0.2,0.3,0.7-1.2,2.1c0.1-0.1-0.6,0.1-0.8-0.8c-0.7-0.4-2-0.3-3.7,0c-0.8,0.4-0.8,0.5-2.5,1.2l-0.4,0.5l-0.7,1l-2.7,0.3
			l0.2,2c-0.8,0.5-0.7,0.4-2,1.3c0.4,0.7,0.8,1.4,1.2,2c0.6,0.9,1,1.7,1.3,2.4c0.6,1.4,1.6,4.3,2.7,7c0.6,1.6,1.1,3.1,1.6,4.2
			c0.6,1.6,2.8,5.2,5,8.1l1.4-2l2.4,1.8c0,0,0,0,2.8,1.2c2,0.8,4,1,5,1.1c0.3-0.6,0.6-1.3,0.9-2c0.2,0.1,0.5,0.2,0.9,0.4l0.1-0.2
			l2.7,1.3l-0.6-2.6l0.4-1.3c0.1,0.1-0.1-0.1-0.5-0.9c0-0.1,0.4-0.1,0.7-1.3c-0.2-0.1-0.2,0-0.6-0.4c0.5-0.9,0.7-2.1,1.7-3.6
			c3.1-0.1,6.1-5.1,1.2-7.7c0.9-1.5,1.7-2.8,3.1-5.2l0.3,0.4l0.1-0.2l0.5-0.2l-0.1-0.5l0.2-0.1l0.3-0.7l0.4,0.1
			c0.2-0.7,0.6-0.3,0.6-2.4c-0.2-0.2,0.3,0.3-0.9-1.4c0.1-0.1,0-0.1,0.6-1c-0.2,0.1-1.1-2.7,0.8-2l0.3-0.1l0.1-0.1l0.2,0.1
			c2-1.5,5.2-3.4,7.8-5.8c-0.1-0.1,0.3,0.2,1.5,0.1l0.7-0.6c0,0.2,0.2-0.4,1.8,0.6c0.1-0.1-0.1,0.1,0.6-0.6c0.4-0.1,1,1.8,2.7,1.7
			c0,0.3,1.4,0.1,1.9,1.2c3.9,0.4,6,4.3,10.6,6.1c1.9-3.6,3.6-7.3,4.1-12.3C169.5,122.4,168.6,122.7,167.4,122.3z"/>
		<g>
			<path class="st22" d="M100.7,110.7c4.1,5.2,1.6,10.6-0.2,14.5c-0.4,1-0.9,1.9-1.1,2.6c-1.2,3.9,0.1,7.3,1.6,10
				c0.4-0.3,1-0.6,2-1.2l-0.2-2l2.7-0.3c0.3-0.4,0.3-0.4,1.1-1.6c0.2,0,1.5-0.8,2.5-1.2c0.9,0,1.9-0.6,3.7,0
				c0.2,0.1-0.3,0.4,0.8,0.8c-0.1-0.1,0.9-0.2,1.2-2.1l10.9-0.5l-0.7-14.9c-0.3-0.4-0.3-0.4-1.1-1.5l-2,0.1l-0.4-1l-0.2,0l-0.1-0.4
				c0.1-0.3,0.5-0.6,1-1.6l-0.1-0.4l-0.3-0.3l0.1-0.3c0,0.1-0.2-0.7-0.9-1.3l0-0.1c0.9-0.6,2.1-1.7,3.4-3.2
				c-0.2-0.2-0.5-1.2-1.7-2.6c-1.8-0.9-1.8-2.9-4.7-4.6c-0.1-1.1,1.4-3,3.4-2.5l0.1,0.2c0.8-0.5,1.7-2.8-0.5-3.6
				c-0.1,0,0.1-0.1,0.3-1l1.3-0.3l0.3,0.3c6.1-2.3,12.8-6.6,20-6.6c0.4,0-1-1.9-1-1.9c-2.1-2-2.7-4.7-5.1-8l0.3-0.4
				c0.3,0.1,0.2,0.2,1,0.1c1.4-1.9,2.8-3.5,2-7.1c-5.5,0.3-11.9,1.5-18.4,1.8c-2.3,0.2-3.1-0.2-6.3,1.7l0.3,0.1
				c-1.2,1.7-2.3,4-3.9,6.6l0,0.1c-4.2,5.5-4.6,7.5-12.3,11.4c-0.2,0.3,0.1,0-1,0.7l-0.1,0c-0.3,0.2-0.4,0.3-1.3,0.8l0,0.1
				c-1.3,0.6-1.1,1.1-4.2,1.4l-0.2-0.1l-0.1,0.2l-0.2-0.1C92.1,92,92.1,92,91,93.2c0,0.5-0.1,0.3,0.2,1.6l0.1,0
				c0-0.1-0.1,0.2,0.1,0.7l0.3,0.2c0.1,0.8-0.3,2.1-0.8,4l-0.1,0.1l-0.1,0.6c0.9,0.1,1.4,0.2,3.8,0.6L93,105l-4.3-0.5
				c-0.2,0.1-0.3,0.2-1.5,0.7l0,0.5C92.7,105.9,97.4,106.4,100.7,110.7z"/>
		</g>
		<g>
			<path class="st29" d="M67.6,84.8l0,0.4c-1.8,4.3,0.1,9.3-0.7,14.9l-0.2,0.1c-0.1,0.8-0.6,1.1-0.9,2c0.1,0,0.1,0,0.2,0
				c2.5,0.6,4.4,1.2,5.8,1.7c2.2,0.7,3.6,1.2,5.9,1.4c2.6,0.2,5,0.3,7.3,0.3c0.7,0,1.5,0,2.2,0c0-0.1,0-0.3,0-0.5
				c0-0.1,0.5-0.1,1.5-0.7L93,105l1.6-4.1c-0.7-0.1-1.6-0.3-3.8-0.6l0.1-0.6l0.1-0.1c0.1-1.1,0.7-1.9,0.8-4l-0.3-0.2
				c-0.1-0.2,0,0-0.1-0.7l-0.1,0c0,0.2-0.1-0.7-0.4-1.5c-0.3-0.2-1.1-0.5-2.3-1.1l-0.1,0.1l-0.4-0.3l-0.6,0.2l0-0.1L87,91.8
				c-0.1-0.2-0.2-0.2-0.8-1l-0.3,0l-0.1-0.1l-0.4,0.3l0-0.1l-0.2-0.2c-0.4,0.1-1.7,1-2.8,0.4c-1-0.5-2.2-2.3-4.3-2.7l0-0.1
				c-0.4,0.1-1.4-0.5-3.2-0.5c-4.8-0.4-5.5-4.3-9.2-8c-0.2,0.2,0.6,1.3-0.4,2.2L64.9,82l-0.1,0.2C65.7,83.1,66.1,82.9,67.6,84.8z"/>
			<path class="st26" d="M65.4,79.5c0.1,0.1,0.1,0.1,0.2,0.2c0,0,0,0,0,0L65.4,79.5z"/>
		</g>
		<path class="st28" d="M51.8,104.1c0.7-0.2,1.4-0.4,2.1-0.7c3.1-1.1,6.9-2.4,12-1.1c0.2-0.7,0.5-1.4,0.8-2.1l0.2-0.1
			c0.8-4.2-1.2-10,0.7-14.9l0-0.4c-0.1-0.3-1.7-1.9-2.8-2.7l0.1-0.1c0.7-0.3,1-0.6,0.7-2.3c-0.5-0.4,0-0.4-1.2-0.9l0-0.4l-0.6-0.4
			l-0.4,0.2c-0.1-0.1-0.9-0.3-1.4-0.9l-0.2,0l-1-0.6c-0.1-0.1-0.3,0.9-0.9,1.2l0.7,0.9l0,0.2c0-0.1-0.2,0.2-1.1,0.2l-0.3,0.3
			l-0.6-0.2l-0.3,0.8l0.2,0.5l-0.2,0.2l-0.2,0l-0.4-0.4l0-0.1l-1.2-0.5l-0.1-0.3c-0.1,0,0.2-0.1-0.7-0.3c0,0,0,0.1-0.1,0.5l-0.3,0.1
			c0.1,0.1-0.3-0.2,0.2,0.9c0,0-0.1,0-0.3,0.2c-0.1,0.5-0.1,0.6,0,1.8c-0.1,0,0.2,0-0.9-0.4l0,0.3l-0.2-0.1l-0.1,0.3l-0.2,0.1l0,0.3
			c-0.8,0-1.2-0.2-2.9-0.3c0.1,0.1-0.1,0.6,0.9,1.8l0,0.4c-0.4-0.2-0.5-0.6-1.9-1.2l-0.1,0.1c0.1,0.1-0.2-0.2-0.3,0.7
			c0.3,0.1-0.5-0.2,1.6,0.9l-0.1,0.2l-0.2,0l-0.1,0.3l-0.1,0.1l0,0.1l-0.1,0c-0.1,0.3-0.3,0.3,0.1,1L50.3,87l-0.8-0.6l-0.1,0.1
			l-0.2-0.1l-0.2,1l0.5,0.5l0,0.4c0,0,1,0.1,1.9,1.1c-0.1-0.1,0.1,0.5-0.6,0.8l0.1,0.2l-0.3,0.1c0.1,0.1-0.2-0.1-0.1,0.5l0.4,0.2
			l0,0.4l-0.7-0.2l-0.4-0.6l-0.3,0.2c0.3,0.5,0.8,0.8,0.2,2.5l-0.6-0.1c0,0-0.2,0.3,0,1c0-0.1,0,0.2-0.6,0l-0.1,0.4l-0.1,0.1l-0.3,0
			c0,0.1-0.1,0-0.2,0.6l-0.8-0.1c0,0-0.1,0.5-0.6,1.6l0,0.2c0.1,0-0.2,0-0.9-0.3c-2.7,2.2-5.6-0.8-8.4-3.4c-0.2,0.1-0.7-0.1-0.9,1
			l-0.4,0.1l0,0.3c0.4,0.6,2.1,1.7,2.9,3.5l-0.7,0.5c1.6,5.9,7,6.8,12.5,5.7c0.4-0.1,0.8-0.2,1.3-0.3L51.8,104.1z"/>
		<path class="st30" d="M97.8,127.3c0.3-0.9,0.7-1.8,1.2-2.9c1.7-3.7,3.8-8.3,0.4-12.7c-3.2-4.2-8.1-4.2-14.4-4.3
			c-2.4,0-4.8-0.1-7.5-0.3c-2.5-0.2-4.1-0.7-6.3-1.4c-1.4-0.5-3.2-1-5.7-1.7c-3-0.8-5.5-0.6-7.6,0c0.1,0.1,0.3,0.1,0.5,0.3
			c0,0.2,0.1,0.2,0,0.7c0.5,0.4,1.1,1,1.1,3.2l-0.7,0.2l0.6,1.7l0.3,0c-0.1,0.5,0.4,1.7,1.8,3l-0.7,0.4l0.2,0.5
			c0.1-0.1,0,0.3,0.9-0.1c-0.1,0.1,0.4-0.1,0.8,0.9l-0.3,0.4l0.1,0.2l0.2,0.2l0,0.2l-0.1,0.2c0,0.1,0-0.2,0.6,0.9l0,0.1l-0.2,0.2
			l-0.4,0.1l-0.4-0.1c-0.1,0,0.1,0.2-0.8,0.3c-0.3-0.1-0.1-0.1-0.8-0.2l-0.4,0.2l-0.1,0.2c-0.1,1.8,3.1,2.5,2.9,4.7
			c0.1,0.4,1.2,0.8,2.4,1.6c0.4,0.2,1.1-0.1,2.1-0.4c-0.3,0.5-1.3,2.2-2.1,3.6l3.1,1.8l-0.8,1.4l2.9,2.5l0.2-0.3
			c0.8,0.4,2.9,1.7,4.5,2.5c-0.4,0.4-1.1,1.1-2.5,2.3c1.2,2.2,3.2,4.5,6.2,5.9l-0.3,0.2l3.9,2.3l-0.1,0.1l5.6,3.1
			c0.8-0.7,1.9-1.7,3.2-2.9c0-0.1,0,0.1,0.1-0.9c2.4-1.2,5.4-4.4,8.6-6.4C97.9,135.8,96.3,131.9,97.8,127.3z"/>
		<path class="st31" d="M106.2,154.1c-0.4-1.1-1-2.6-1.6-4.3c-1-2.6-2-5.6-2.6-6.9c-0.2-0.6-0.7-1.3-1.2-2.1c-0.4-0.6-0.8-1.3-1.2-2
			c-2.9,1.8-5,4.3-8.6,6.4c0,0.1,0-0.2-0.1,0.9c-0.7,0.7-1.8,1.7-3.2,2.9l-5.6-3.1l0.1-0.1l-3.9-2.3l0.3-0.2l-3.5-2.1l-0.9,0.6
			l-0.8-1.2c-1.2,0.5-5.8,4.6-7.5,4.7c-0.2,0.6-0.1,0.3-0.7,1.9l0.9,0.5l-1.6,1.1l-0.1,0.2c0.5,0.3,2.4,1.3,3.6,2
			c-0.9,1.4-2.3,3.8-3.3,5.8c1.9,1,4.6,2.4,7.2,3.8c-1.7,1.4-5.9,4.7-7.5,6.8l-0.8-0.6l-1,1.2c2,1.6,4.7,2.9,7.9,3.7
			c0.9,0.9,0.8,1.2,1.8,3.5c-1.7,2-3.9,4.5-6.7,6.9l0.4,0.4c-0.8,0.9-2.3,1.7-3.8,3.2c0.7,0.3,2.8,1.9,4.1,2.9
			c1.7-2.2,4.2-4.6,6.6-7.2c6.5-4.3,11.9-11.9,18.2-18.4l0-0.1c0.3-0.5,1-1.1,1.9-2.1l0-0.1c1.4-2,2.9-5,6.1-6.4
			c1.8,0.4,5,0.9,7.5,1.2l0.2-0.1C106.6,155,106.3,154.5,106.2,154.1z"/>
		<path class="st32" d="M115.4,178c1.7-2.4,3.4-5.3,5.9-8.2l-0.2-0.1c0,0-3-1.3-5.3-2.8c-0.8-0.5-1.4-1-1.9-1.5l0,0
			c-2.5-2.5-5.6-7-7.1-9.9l-0.2,0.1c-1.9-0.2-5-0.7-7.5-1.2c-2.3,1-4.4,3.5-6.1,6.4l0,0.1c-0.3,0.5-1.1,1-1.9,2.1l0,0.1
			c-5.6,5.7-10.9,13.3-18.2,18.4c-1.5,1.8-4.6,4.7-6.6,7.2c2,1.6,5.6,2.2,7.1,5.8c2.9-2.5,6.4-5.4,10-8.5c3.4,1.1,5.1,4.5,8.3,7.7
			l2-1.5c0.3,0.1,0.3-0.1,1.1,0.4c1.3-0.8,2.7,0.1,4.6,2.1c0.6-0.4,1.5-0.8,3.1-2l-0.2-0.4c2.3-1.5,4.4-5.5,8.3-8
			c0.3-0.5,0.4-0.7,1.4-2.2l0-0.2c0.6-0.6,1-1.4,2.7-2.5c0.5-0.1,0,0.2,1.7,0.4l0.6-0.3l0.1-0.1l-0.4-0.7
			C116.5,178.4,116.4,178.5,115.4,178z"/>
		<g>
			<path class="st24" d="M148.6,192.7c-0.9,0.1-4.1,0.5-6.7,0.2c-2.6-0.3-4.3-2.6-4.6-2.6c-0.3,0-0.9,0.2-0.9,0.2s-4.4-6.5-5.6-8.2
				l-0.1-2.9c0,0,0.5-0.5,0.5-0.8c0-0.6-0.4-1.1-0.4-1.1l-9.5-7.8c-2.1,2.4-3.5,4.4-5.9,8.2c0.3,0.2-0.1,0.8-0.5,1.3
				c-0.5,0.5-1.5,0.9-2.7,2.5l0,0.2c-0.2,0.3-0.8,1-1.4,2.2c-3,1.7-4.4,4.6-8.3,8l0.2,0.4c0.1-0.1-1.4,1.2-2.4,1.5
				c1.5,3.6,4.7,6.5,8.4,10c0.1-0.5,12.3-8.9,18.7-8.2c-0.1-0.1,0.4,0,0.5-1.3c1.3-1.1,4.7,0.8,7.3,0.3c3.3,3,8.9,2.2,13.1-1.1
				l-0.1-0.8L148.6,192.7z"/>
		</g>
		<g>
			<g>
				<path class="st33" d="M167.4,122.2c0.6-1,0.7-1.1,1.7-2.8c-0.3-0.4-0.7-0.7-1.3-2c-2,0.9-4.6,0-7.5-0.3
					c-1.4-2.7-0.8-9.1-5.7-9.7l0-0.6c-1.2-0.2-3.7-0.5-5.8-0.9c-0.3-1-0.2-2.3-1.8-3.9c0,0-0.2,0-0.5,0.1c0.1,0,0.1-0.1,0.2-0.1
					c0-0.3,0,0,0.1-1.2l-0.1,0l0.7-1.9l-0.6-1c0.2-0.3,0.1-0.1,0.5-1l-0.2-1.6c-0.3-0.1-1.6-0.6-2.4-2.2c-0.1,0,0.2-0.1,0.8-0.8
					l0-0.4c-0.1,0,0-0.1-0.5-0.4l0.2-0.2c-0.2-0.7,0.3-1.2-0.4-3c-0.2,0,0-0.3-0.8-0.1l-0.2-0.1c0-0.1-0.1-0.1,0.2-0.6l-0.1-0.2
					l-0.4-0.2c-0.3,0-0.2,0.7-1.9,0.4c0-0.1,0.1-0.4,0.5-0.9c0-0.2,1.4-2.5,1.1-2.5c0,0-0.1,0-0.1,0c0.2-0.2-1-1.8-1-1.8
					c-2.1-2-2.7-4.7-5.1-8l0.3-0.4c0.3,0.1,0.2,0.2,1,0.1c1.4-1.9,2.8-3.5,2-7.1c0,0,0,0,0,0c0,0,0,0,0,0c-0.4-0.4-0.1-2.9,2.1-2.2
					c0.1,0,0.1-1.1,0.3-2.2c0.4-0.1,0.3,0.1,1.2-0.6c-4.8-8.9-13-16.4-21.3-23.9l-0.2,0c-0.7-0.4-1.5-1.2-2.6-2.1
					c0-0.1-0.1,0.2-0.9-0.2c-0.1-0.3-0.6-0.4-1.4-1.3c-0.4-0.2-1.1,0.2-2.1-1l-0.2,0.1c-0.1-0.1,0.1,0.1-0.7-0.2l-0.1-0.2l-0.2-0.1
					l-0.2,0c0-0.1,0,0.1-0.4-0.3l-0.2-0.1l-0.3-0.5c-0.3-0.1-2.4-1.7-2-3.4l-0.2-0.3c0-0.2,0.1-0.1-0.2-0.8
					c-2.4-0.2-2.5,3.4-5.2,4.5l-0.4,0.1c-0.9-0.5-1.8,0.2-3.4-1.2c0,0,0,0.1-0.5-0.1c-0.7-0.5,0.5-1.6-1.2-2.7c-0.4,0-0.4,0.2-2,1.3
					c-0.3,0.3-1.7-0.8-2.9-0.4c0.4-0.2,0.3,0.1,1.1-0.5c0.3-0.6,0.3-1.6,0.9-3.1c-1.4,0.3-3.5-1.4-5.5,0.6c-3.1,1.6-1.8,3-8.4-0.6
					c-1.2-0.5-3.6-0.8-5.8-1.6L77,24.1l-0.7,0c-0.2,0.4-0.1,0.4-0.8,1.5c-0.3,0.1-0.4,0.1-1.3,0.4C73.9,26,72.9,25,71.8,25l-0.3-0.5
					L71,24.3l-0.1-0.2c-0.1,0.2-0.5-0.4-1.6-0.5l0,0.4c0,0,0.6,0.5,0.6,1.6l-0.1,0.1l-0.4-0.1c0,0.8,0.4,1.8-0.4,3.2
					c-0.3,0.2-1.6,0.1-1.8,1.8l-0.3,0.2c-0.1,0.2-0.1,0.8-0.2,1.6c0.2,0.5,0.3,0.2,0.2,1.5c-0.4,0.2,0-0.1-1.4,0.2
					c0-0.1-0.1,0-1.1-0.8l-0.4,0c-0.5-0.6-1.8-1.6-1.3-3.6l-0.4-0.5c-0.1-0.1-0.1,0.1-0.9-0.4c-0.6-0.1-2.2,0.4-3.4-0.4l-0.1-0.3
					l-0.3,0l-0.1-0.1l-0.2,0.1c0,0-0.1,0.1-0.6-0.3l-0.3,0.1c-0.4-0.7-2.8-0.1-4.4-1.4c-0.3-0.6-0.7-1.8-1.1-3.3l0.6-0.6l0-0.1
					L51,21.9c-0.3,0.2-0.1,0-0.7,0.7c-0.6,0.3-1.9,0.1-3.9,0.4l-0.3-0.4c-0.2,0.1-0.9,0.4-2.4,0.7l-0.3-0.6c0,0.2-0.3-0.3-2.4,0.6
					c0,0,0,0.1-0.6-0.2c-0.2-0.1,0.2,0.2-0.9,0.2c0,0,0,0.1-0.3,0.7l-0.7,0.3l-0.1,0.2l0,0.3c-3.2-1-5.9-2-10.1-2.4l0.2-0.6
					c-0.6,0-0.3-0.6-2.1-0.5l0,0.2c-0.3,0-0.7,0.1-2.2,0.2l-0.1-0.4c0.1,0-0.3,0-1.1,0.2c0.1,0-0.2-0.2-0.3-0.9l-0.4,0.2
					c-2.1-2.4-4.5-5.3-7.9-7.8c-1,0.3-3.5-0.7-5.5-1.1c-0.1,0.2,0.1-0.1-0.3,1.3L8,13.3C4.6,21.2-2.2,33.9,8.1,40.8
					c3.2,9,5.9,19.2,9.3,29.3c0.1,0,0.2,0,0.5,0c-0.1,0-0.3,0-0.5,0c1,3.3-1.1,7-0.2,11.4c6.3,5.8,14.5,10.5,20.9,17.3
					c1.6,5.9,7,6.8,12.4,5.7c0.4-0.1,0.8-0.2,1.3-0.3l-0.1-0.2c0.7-0.2,1.4-0.4,2.1-0.7c3.1-1.1,6.9-2.4,12-1.1c0,0,0,0,0,0
					c0,0,0.1,0,0.1,0c2.5,0.6,4.4,1.2,5.8,1.7c2.2,0.7,3.6,1.2,5.9,1.4c2.6,0.2,5,0.3,7.3,0.3c0.7,0,1.5,0,2.2,0c0,0,0,0,0,0
					c5.5,0.1,10.2,0.7,13.6,5c4.1,5.2,1.6,10.6-0.2,14.5c-0.4,1-0.9,1.9-1.1,2.6c-1.2,3.9,0.1,7.3,1.6,10c0,0,0.1-0.1,0.1-0.1
					c-0.1,0-0.1,0.1-0.1,0.1c0.4,0.7,0.8,1.4,1.2,2c0.6,0.9,1,1.7,1.3,2.4c0.6,1.4,1.6,4.3,2.7,7c0.6,1.6,1.1,3.1,1.6,4.2
					c0.6,1.6,2.8,5.2,5,8.1l1.4-2l2.4,1.8c0,0,0,0,2.8,1.2c2,0.8,4,1,5,1.1c0.3-0.6,0.6-1.3,0.9-2c0.2,0.1,0.5,0.2,0.9,0.4l0.2-0.2
					l2.7,1.3l-0.6-2.6l0.4-1.3c0.1,0.1-0.1-0.1-0.5-0.9c0-0.1,0.4-0.1,0.7-1.3c-0.2-0.1-0.2,0-0.6-0.4c0.5-0.9,0.7-2.1,1.7-3.6
					c3.1-0.1,6.1-5.1,1.2-7.7c0.9-1.5,1.7-2.8,3.1-5.2l0.3,0.4l0.1-0.2l0.5-0.2l-0.1-0.5l0.2-0.1l0.3-0.7l0.4,0.1
					c0.2-0.7,0.6-0.3,0.6-2.4c-0.2-0.2,0.3,0.3-0.9-1.4c0.1-0.1,0-0.1,0.6-1c-0.2,0.1-1.1-2.7,0.8-2l0.3-0.1l0.1-0.1l0.2,0.1
					c2-1.5,5.2-3.4,7.8-5.8c-0.1-0.1,0.3,0.2,1.5,0.1l0.7-0.6c0,0.2,0.2-0.4,1.8,0.6c0.1-0.1-0.1,0.1,0.6-0.6c0.4-0.1,1,1.8,2.7,1.7
					c0,0.3,1.4,0.1,1.9,1.2c3.9,0.4,6,4.3,10.6,6.1c1.9-3.6,3.6-7.3,4.1-12.3C169.5,122.4,168.6,122.7,167.4,122.2z"/>
				<path class="Coropleth_x0020_map_x0020_outline" d="M141.9,192.9c-2.6-0.3-4.3-2.6-4.6-2.6c-0.3,0-0.9,0.2-0.9,0.2
					s-4.4-6.5-5.6-8.2l-0.1-2.9c0,0,0.5-0.5,0.5-0.8c0-0.6-0.4-1.1-0.4-1.1l-9.5-7.7c0,0,0,0,0,0l-0.2-0.1c0,0-3-1.3-5.3-2.8
					c-0.8-0.5-1.4-1-1.9-1.5l0,0c-2.5-2.5-5.6-7-7.1-9.9c-0.3-0.5-0.5-1-0.6-1.4c-0.4-1.1-1-2.6-1.6-4.3c-1-2.6-2-5.6-2.6-6.9
					c-0.2-0.6-0.7-1.3-1.2-2.1c-0.4-0.6-0.8-1.3-1.2-2c0,0,0,0,0,0c-1.7-3-3.2-6.9-1.8-11.4c0.3-0.9,0.7-1.8,1.2-2.9
					c1.7-3.7,3.8-8.3,0.4-12.7c-3.2-4.2-8.1-4.2-14.4-4.3c-2.4,0-4.8-0.1-7.5-0.3c-2.5-0.2-4.1-0.7-6.3-1.4c-1.4-0.5-3.2-1-5.7-1.7
					c-3-0.8-5.4-0.6-7.6,0c0.1,0.1,0.3,0.1,0.5,0.3c0,0.2,0.1,0.2,0,0.7c0.5,0.4,1.1,1,1.1,3.2l-0.7,0.2l0.6,1.7l0.3,0
					c-0.1,0.5,0.4,1.7,1.8,3l-0.7,0.4l0.2,0.5c0.1-0.1,0,0.3,0.9-0.1c-0.1,0.1,0.4-0.1,0.8,0.9l-0.3,0.4l0.1,0.2l0.2,0.2l0,0.2
					l-0.1,0.2c0,0.1,0-0.2,0.6,0.9l0,0.1l-0.2,0.2l-0.4,0.1l-0.4-0.1c-0.1,0,0.1,0.2-0.8,0.3c-0.3-0.1-0.1-0.1-0.8-0.2l-0.4,0.2
					l-0.1,0.2c-0.1,1.8,3.1,2.5,2.9,4.7c0.1,0.4,1.2,0.8,2.4,1.6c0.4,0.2,1.1-0.1,2.1-0.4c-0.3,0.5-1.3,2.2-2.1,3.6l3.1,1.8
					l-0.8,1.4l2.9,2.5l0.2-0.3c0.8,0.4,2.9,1.7,4.5,2.5c-0.4,0.4-1.1,1.1-2.5,2.3c0.9,1.6,2.9,3.7,2.9,3.7l-1.1,0.8l-0.8-1.2
					c-1.2,0.5-5.8,4.6-7.5,4.7c-0.2,0.6-0.1,0.3-0.7,1.9l0.9,0.5l-1.6,1.1l-0.1,0.2c0.5,0.3,2.4,1.3,3.6,2c-0.9,1.4-2.3,3.8-3.3,5.8
					c1.9,1,4.6,2.4,7.2,3.8c-1.7,1.4-5.9,4.7-7.5,6.8l-0.8-0.6l-1,1.2c2,1.6,4.7,2.9,7.9,3.7c0.9,0.9,0.8,1.2,1.8,3.5
					c-1.7,2-3.9,4.5-6.7,6.9l0.4,0.4c-0.8,0.9-2.3,1.7-3.8,3.2c0.7,0.3,2.8,1.9,4.1,2.9c2,1.6,5.6,2.2,7.1,5.8
					c2.9-2.5,6.4-5.4,10-8.5c3.4,1.1,5.1,4.5,8.3,7.7l2-1.5c0.3,0.1,0.3-0.1,1.1,0.4c1.3-0.8,2.7,0.1,4.6,2.1
					c0.2-0.2,0.5-0.3,0.7-0.5c1.6,3.6,4.7,6.4,8.4,10c0.1-0.5,12.3-8.9,18.7-8.2c-0.1-0.1,0.4,0,0.5-1.3c1.3-1.1,4.7,0.8,7.3,0.3
					c3.3,3,8.9,2.2,13.1-1.1l-0.1-0.8l0.4-0.4C147.7,192.8,144.5,193.2,141.9,192.9z"/>
			</g>
			<g>
				<path class="Coropleth_x0020_map_x0020_outline" d="M167.4,122.2c0.6-1,0.7-1.1,1.7-2.8c-0.3-0.4-0.7-0.7-1.3-2
					c-2,0.9-4.6,0-7.5-0.3c-1.4-2.7-0.8-9.1-5.7-9.7l0-0.6c-1.2-0.2-3.7-0.5-5.8-0.9c-0.3-1-0.2-2.3-1.8-3.9c0,0-0.2,0-0.5,0.1
					c0.1,0,0.1-0.1,0.2-0.1c0-0.3,0,0,0.1-1.2l-0.1,0l0.7-1.9l-0.6-1c0.2-0.3,0.1-0.1,0.5-1l-0.2-1.6c-0.3-0.1-1.6-0.6-2.4-2.2
					c-0.1,0,0.2-0.1,0.8-0.8l0-0.4c-0.1,0,0-0.1-0.5-0.4l0.2-0.2c-0.2-0.7,0.3-1.2-0.4-3c-0.2,0,0-0.3-0.8-0.1l-0.2-0.1
					c0-0.1-0.1-0.1,0.2-0.6l-0.1-0.2l-0.4-0.2c-0.3,0-0.2,0.7-1.9,0.4c0-0.1,0.1-0.4,0.5-0.9c0-0.2,1.4-2.5,1.1-2.5c0,0-0.1,0-0.1,0
					c0.2-0.2-1-1.8-1-1.8c-2.1-2-2.7-4.7-5.1-8l0.3-0.4c0.3,0.1,0.2,0.2,1,0.1c1.4-1.9,2.8-3.5,2-7.1c0,0,0,0,0,0c0,0,0,0,0,0
					c-0.4-0.4-0.1-2.9,2.1-2.2c0.1,0,0.1-1.1,0.3-2.2c0.4-0.1,0.3,0.1,1.2-0.6c-4.8-8.9-13-16.4-21.3-23.9l-0.2,0
					c-0.7-0.4-1.5-1.2-2.6-2.1c0-0.1-0.1,0.2-0.9-0.2c-0.1-0.3-0.6-0.4-1.4-1.3c-0.4-0.2-1.1,0.2-2.1-1l-0.2,0.1
					c-0.1-0.1,0.1,0.1-0.7-0.2l-0.1-0.2l-0.2-0.1l-0.2,0c0-0.1,0,0.1-0.4-0.3l-0.2-0.1l-0.3-0.5c-0.3-0.1-2.4-1.7-2-3.4l-0.2-0.3
					c0-0.2,0.1-0.1-0.2-0.8c-2.4-0.2-2.5,3.4-5.2,4.5l-0.4,0.1c-0.9-0.5-1.8,0.2-3.4-1.2c0,0,0,0.1-0.5-0.1
					c-0.7-0.5,0.5-1.6-1.2-2.7c-0.4,0-0.4,0.2-2,1.3c-0.3,0.3-1.7-0.8-2.9-0.4c0.4-0.2,0.3,0.1,1.1-0.5c0.3-0.6,0.3-1.6,0.9-3.1
					c-1.4,0.3-3.5-1.4-5.5,0.6c-3.1,1.6-1.8,3-8.4-0.6c-1.2-0.5-3.6-0.8-5.8-1.6L77,24.1l-0.7,0c-0.2,0.4-0.1,0.4-0.8,1.5
					c-0.3,0.1-0.4,0.1-1.3,0.4C73.9,26,72.9,25,71.8,25l-0.3-0.5L71,24.3l-0.1-0.2c-0.1,0.2-0.5-0.4-1.6-0.5l0,0.4
					c0,0,0.6,0.5,0.6,1.6l-0.1,0.1l-0.4-0.1c0,0.8,0.4,1.8-0.4,3.2c-0.3,0.2-1.6,0.1-1.8,1.8l-0.3,0.2c-0.1,0.2-0.1,0.8-0.2,1.6
					c0.2,0.5,0.3,0.2,0.2,1.5c-0.4,0.2,0-0.1-1.4,0.2c0-0.1-0.1,0-1.1-0.8l-0.4,0c-0.5-0.6-1.8-1.6-1.3-3.6l-0.4-0.5
					c-0.1-0.1-0.1,0.1-0.9-0.4c-0.6-0.1-2.2,0.4-3.4-0.4l-0.1-0.3l-0.3,0l-0.1-0.1l-0.2,0.1c0,0-0.1,0.1-0.6-0.3l-0.3,0.1
					c-0.4-0.7-2.8-0.1-4.4-1.4c-0.3-0.6-0.7-1.8-1.1-3.3l0.6-0.6l0-0.1L51,21.9c-0.3,0.2-0.1,0-0.7,0.7c-0.6,0.3-1.9,0.1-3.9,0.4
					l-0.3-0.4c-0.2,0.1-0.9,0.4-2.4,0.7l-0.3-0.6c0,0.2-0.3-0.3-2.4,0.6c0,0,0,0.1-0.6-0.2c-0.2-0.1,0.2,0.2-0.9,0.2
					c0,0,0,0.1-0.3,0.7l-0.7,0.3l-0.1,0.2l0,0.3c-3.2-1-5.9-2-10.1-2.4l0.2-0.6c-0.6,0-0.3-0.6-2.1-0.5l0,0.2
					c-0.3,0-0.7,0.1-2.2,0.2l-0.1-0.4c0.1,0-0.3,0-1.1,0.2c0.1,0-0.2-0.2-0.3-0.9l-0.4,0.2c-2.1-2.4-4.5-5.3-7.9-7.8
					c-1,0.3-3.5-0.7-5.5-1.1c-0.1,0.2,0.1-0.1-0.3,1.3L8,13.3C4.6,21.2-2.2,33.9,8.1,40.8c3.2,9,5.9,19.2,9.3,29.3
					c0.1,0,0.2,0,0.5,0c-0.1,0-0.3,0-0.5,0c1,3.3-1.1,7-0.2,11.4c6.3,5.8,14.5,10.5,20.9,17.3c1.6,5.9,7,6.8,12.4,5.7
					c0.4-0.1,0.8-0.2,1.3-0.3l-0.1-0.2c0.7-0.2,1.4-0.4,2.1-0.7c3.1-1.1,6.9-2.4,12-1.1c0,0,0,0,0,0c0,0,0.1,0,0.1,0
					c2.5,0.6,4.4,1.2,5.8,1.7c2.2,0.7,3.6,1.2,5.9,1.4c2.6,0.2,5,0.3,7.3,0.3c0.7,0,1.5,0,2.2,0c0,0,0,0,0,0
					c5.5,0.1,10.2,0.7,13.6,5c4.1,5.2,1.6,10.6-0.2,14.5c-0.4,1-0.9,1.9-1.1,2.6c-1.2,3.9,0.1,7.3,1.6,10c0,0,0.1-0.1,0.1-0.1
					c-0.1,0-0.1,0.1-0.1,0.1c0.4,0.7,0.8,1.4,1.2,2c0.6,0.9,1,1.7,1.3,2.4c0.6,1.4,1.6,4.3,2.7,7c0.6,1.6,1.1,3.1,1.6,4.2
					c0.6,1.6,2.8,5.2,5,8.1l1.4-2l2.4,1.8c0,0,0,0,2.8,1.2c2,0.8,4,1,5,1.1c0.3-0.6,0.6-1.3,0.9-2c0.2,0.1,0.5,0.2,0.9,0.4l0.2-0.2
					l2.7,1.3l-0.6-2.6l0.4-1.3c0.1,0.1-0.1-0.1-0.5-0.9c0-0.1,0.4-0.1,0.7-1.3c-0.2-0.1-0.2,0-0.6-0.4c0.5-0.9,0.7-2.1,1.7-3.6
					c3.1-0.1,6.1-5.1,1.2-7.7c0.9-1.5,1.7-2.8,3.1-5.2l0.3,0.4l0.1-0.2l0.5-0.2l-0.1-0.5l0.2-0.1l0.3-0.7l0.4,0.1
					c0.2-0.7,0.6-0.3,0.6-2.4c-0.2-0.2,0.3,0.3-0.9-1.4c0.1-0.1,0-0.1,0.6-1c-0.2,0.1-1.1-2.7,0.8-2l0.3-0.1l0.1-0.1l0.2,0.1
					c2-1.5,5.2-3.4,7.8-5.8c-0.1-0.1,0.3,0.2,1.5,0.1l0.7-0.6c0,0.2,0.2-0.4,1.8,0.6c0.1-0.1-0.1,0.1,0.6-0.6c0.4-0.1,1,1.8,2.7,1.7
					c0,0.3,1.4,0.1,1.9,1.2c3.9,0.4,6,4.3,10.6,6.1c1.9-3.6,3.6-7.3,4.1-12.3C169.5,122.4,168.6,122.7,167.4,122.2z"/>
				<path class="Coropleth_x0020_map_x0020_outline" d="M141.9,192.9c-2.6-0.3-4.3-2.6-4.6-2.6c-0.3,0-0.9,0.2-0.9,0.2
					s-4.4-6.5-5.6-8.2l-0.1-2.9c0,0,0.5-0.5,0.5-0.8c0-0.6-0.4-1.1-0.4-1.1l-9.5-7.7c0,0,0,0,0,0l-0.2-0.1c0,0-3-1.3-5.3-2.8
					c-0.8-0.5-1.4-1-1.9-1.5l0,0c-2.5-2.5-5.6-7-7.1-9.9c-0.3-0.5-0.5-1-0.6-1.4c-0.4-1.1-1-2.6-1.6-4.3c-1-2.6-2-5.6-2.6-6.9
					c-0.2-0.6-0.7-1.3-1.2-2.1c-0.4-0.6-0.8-1.3-1.2-2c0,0,0,0,0,0c-1.7-3-3.2-6.9-1.8-11.4c0.3-0.9,0.7-1.8,1.2-2.9
					c1.7-3.7,3.8-8.3,0.4-12.7c-3.2-4.2-8.1-4.2-14.4-4.3c-2.4,0-4.8-0.1-7.5-0.3c-2.5-0.2-4.1-0.7-6.3-1.4c-1.4-0.5-3.2-1-5.7-1.7
					c-3-0.8-5.4-0.6-7.6,0c0.1,0.1,0.3,0.1,0.5,0.3c0,0.2,0.1,0.2,0,0.7c0.5,0.4,1.1,1,1.1,3.2l-0.7,0.2l0.6,1.7l0.3,0
					c-0.1,0.5,0.4,1.7,1.8,3l-0.7,0.4l0.2,0.5c0.1-0.1,0,0.3,0.9-0.1c-0.1,0.1,0.4-0.1,0.8,0.9l-0.3,0.4l0.1,0.2l0.2,0.2l0,0.2
					l-0.1,0.2c0,0.1,0-0.2,0.6,0.9l0,0.1l-0.2,0.2l-0.4,0.1l-0.4-0.1c-0.1,0,0.1,0.2-0.8,0.3c-0.3-0.1-0.1-0.1-0.8-0.2l-0.4,0.2
					l-0.1,0.2c-0.1,1.8,3.1,2.5,2.9,4.7c0.1,0.4,1.2,0.8,2.4,1.6c0.4,0.2,1.1-0.1,2.1-0.4c-0.3,0.5-1.3,2.2-2.1,3.6l3.1,1.8
					l-0.8,1.4l2.9,2.5l0.2-0.3c0.8,0.4,2.9,1.7,4.5,2.5c-0.4,0.4-1.1,1.1-2.5,2.3c0.9,1.6,2.9,3.7,2.9,3.7l-1.1,0.8l-0.8-1.2
					c-1.2,0.5-5.8,4.6-7.5,4.7c-0.2,0.6-0.1,0.3-0.7,1.9l0.9,0.5l-1.6,1.1l-0.1,0.2c0.5,0.3,2.4,1.3,3.6,2c-0.9,1.4-2.3,3.8-3.3,5.8
					c1.9,1,4.6,2.4,7.2,3.8c-1.7,1.4-5.9,4.7-7.5,6.8l-0.8-0.6l-1,1.2c2,1.6,4.7,2.9,7.9,3.7c0.9,0.9,0.8,1.2,1.8,3.5
					c-1.7,2-3.9,4.5-6.7,6.9l0.4,0.4c-0.8,0.9-2.3,1.7-3.8,3.2c0.7,0.3,2.8,1.9,4.1,2.9c2,1.6,5.6,2.2,7.1,5.8
					c2.9-2.5,6.4-5.4,10-8.5c3.4,1.1,5.1,4.5,8.3,7.7l2-1.5c0.3,0.1,0.3-0.1,1.1,0.4c1.3-0.8,2.7,0.1,4.6,2.1
					c0.2-0.2,0.5-0.3,0.7-0.5c1.6,3.6,4.7,6.4,8.4,10c0.1-0.5,12.3-8.9,18.7-8.2c-0.1-0.1,0.4,0,0.5-1.3c1.3-1.1,4.7,0.8,7.3,0.3
					c3.3,3,8.9,2.2,13.1-1.1l-0.1-0.8l0.4-0.4C147.7,192.8,144.5,193.2,141.9,192.9z"/>
			</g>
		</g>
	</g>
</g>
</svg>
