<?xml version="1.0" encoding="utf-8"?>
<!-- Generator: Adobe Illustrator 24.2.0, SVG Export Plug-In . SVG Version: 6.00 Build 0)  -->
<svg version="1.1" id="Layer_1" xmlns="http://www.w3.org/2000/svg" xmlns:xlink="http://www.w3.org/1999/xlink" x="0px" y="0px"
	 viewBox="0 0 453.1 238" style="enable-background:new 0 0 453.1 238;" xml:space="preserve">
<style type="text/css">
@import url("https://use.typekit.net/tfw1zbo.css");
	.st0{fill:#F4F4F4;}
	.st1{fill:#241B58;}
	.st2{font-family:'ff-real-text-pro';}
	.st3{font-size:6.5px;}
	.st4{fill:#878787;}
	.st5{fill:none;stroke:#878787;stroke-width:0.75;}
</style>
<g>
	<g>
		<rect x="0.8" y="95.3" class="st0" width="199.1" height="18"/>
		<rect x="0.8" y="59.3" class="st0" width="199.1" height="18"/>
		<rect x="0.8" y="23.3" class="st0" width="199.1" height="18"/>
		<rect x="0.8" y="131.3" class="st0" width="199.1" height="18"/>
		<rect x="0.8" y="167.3" class="st0" width="199.1" height="18"/>
	</g>
	<g>
		<rect x="79.2" y="11.4" class="st1" width="73.2" height="9"/>
		<rect x="79.2" y="29.4" class="st1" width="65.9" height="9"/>
		<rect x="79.2" y="47.4" class="st1" width="48.3" height="9"/>
		<rect x="79.2" y="65.4" class="st1" width="46.6" height="9"/>
		<rect x="79.2" y="83.5" class="st1" width="45.6" height="9"/>
		<rect x="79.2" y="101.5" class="st1" width="44.9" height="9"/>
		<rect x="79.2" y="119.5" class="st1" width="32.6" height="9"/>
		<rect x="79.2" y="137.5" class="st1" width="26.3" height="9"/>
		<rect x="79.2" y="155.5" class="st1" width="24.8" height="9"/>
		<rect x="79.2" y="173.5" class="st1" width="23" height="9"/>
	</g>
	<g>
		<text transform="matrix(1 0 0 1 13.2844 182.4797)" class="st1 st2 st3">Grécko</text>
		<text transform="matrix(1 0 0 1 13.2844 164.4751)" class="st1 st2 st3">Francúzsko</text>
		<text transform="matrix(1 0 0 1 13.2844 146.4702)" class="st1 st2 st3">Španielsko</text>
		<text transform="matrix(1 0 0 1 13.2844 128.4656)" class="st1 st2 st3">Maďarsko</text>
		<text transform="matrix(1 0 0 1 13.2844 110.4607)" class="st1 st2 st3">Spojené kráľovstvo</text>
		<text transform="matrix(1 0 0 1 13.2844 92.4561)" class="st1 st2 st3">Poľsko</text>
		<text transform="matrix(1 0 0 1 13.2844 74.4512)" class="st1 st2 st3">Rakúsko</text>
		<text transform="matrix(1 0 0 1 13.2844 56.4463)" class="st1 st2 st3">Taliansko</text>
		<text transform="matrix(1 0 0 1 13.2844 38.4417)" class="st1 st2 st3">Nemecko</text>
		<text transform="matrix(1 0 0 1 13.2844 20.4368)" class="st1 st2 st3">Česká republika</text>
	</g>
	<g>
		<text transform="matrix(1 0 0 1 2.551 182.4797)" class="st1 st2 st3">10</text>
		<text transform="matrix(1 0 0 1 6.4504 164.4751)" class="st1 st2 st3">9</text>
		<text transform="matrix(1 0 0 1 6.4504 146.4702)" class="st1 st2 st3">8</text>
		<text transform="matrix(1 0 0 1 6.4504 128.4656)" class="st1 st2 st3">7</text>
		<text transform="matrix(1 0 0 1 6.4504 110.4607)" class="st1 st2 st3">6</text>
		<text transform="matrix(1 0 0 1 6.4504 92.4561)" class="st1 st2 st3">5</text>
		<text transform="matrix(1 0 0 1 6.4504 74.4512)" class="st1 st2 st3">4</text>
		<text transform="matrix(1 0 0 1 6.4504 56.4463)" class="st1 st2 st3">3</text>
		<text transform="matrix(1 0 0 1 6.4504 38.4417)" class="st1 st2 st3">2</text>
		<text transform="matrix(1 0 0 1 6.4504 20.4368)" class="st1 st2 st3">1</text>
	</g>
	<g>
		<text transform="matrix(1 0 0 1 105.0938 182.4797)" class="st1 st2 st3">566</text>
		<text transform="matrix(1 0 0 1 106.96 164.4751)" class="st1 st2 st3">612</text>
		<text transform="matrix(1 0 0 1 108.3799 146.4702)" class="st1 st2 st3">647</text>
		<text transform="matrix(1 0 0 1 115.0752 128.4656)" class="st1 st2 st3">804</text>
		<text transform="matrix(1 0 0 1 127.0439 110.4607)" class="st1 st2 st3">1</text>
		<text transform="matrix(1 0 0 1 130.9439 110.4607)" class="st1 st2 st3"> </text>
		<text transform="matrix(1 0 0 1 132.2439 110.4607)" class="st1 st2 st3">107</text>
		<text transform="matrix(1 0 0 1 127.6924 92.4561)" class="st1 st2 st3">1</text>
		<text transform="matrix(1 0 0 1 131.5924 92.4561)" class="st1 st2 st3"> </text>
		<text transform="matrix(1 0 0 1 132.8924 92.4561)" class="st1 st2 st3">123</text>
		<text transform="matrix(1 0 0 1 128.7471 74.4512)" class="st1 st2 st3">1</text>
		<text transform="matrix(1 0 0 1 132.6471 74.4512)" class="st1 st2 st3"> </text>
		<text transform="matrix(1 0 0 1 133.9471 74.4512)" class="st1 st2 st3">149</text>
		<text transform="matrix(1 0 0 1 130.4512 56.4463)" class="st1 st2 st3">1</text>
		<text transform="matrix(1 0 0 1 134.3512 56.4463)" class="st1 st2 st3"> </text>
		<text transform="matrix(1 0 0 1 135.6512 56.4463)" class="st1 st2 st3">191</text>
		<text transform="matrix(1 0 0 1 148.0195 38.4417)" class="st1 st2 st3">1</text>
		<text transform="matrix(1 0 0 1 151.9195 38.4417)" class="st1 st2 st3"> </text>
		<text transform="matrix(1 0 0 1 153.2195 38.4417)" class="st1 st2 st3">624</text>
		<text transform="matrix(1 0 0 1 155.3633 20.4368)" class="st1 st2 st3">1</text>
		<text transform="matrix(1 0 0 1 159.2633 20.4368)" class="st1 st2 st3"> </text>
		<text transform="matrix(1 0 0 1 160.5633 20.4368)" class="st1 st2 st3">805</text>
	</g>
</g>
<g>
	<g>
		<rect x="242.8" y="95.3" class="st0" width="199.1" height="18"/>
		<rect x="242.8" y="59.3" class="st0" width="199.1" height="18"/>
		<rect x="242.8" y="23.3" class="st0" width="199.1" height="18"/>
		<rect x="242.8" y="131.3" class="st0" width="199.1" height="18"/>
		<rect x="242.8" y="167.3" class="st0" width="199.1" height="18"/>
	</g>
	<g>
		<text transform="matrix(1 0 0 1 243.9739 182.4778)" class="st1 st2 st3">10</text>
		<text transform="matrix(1 0 0 1 247.8733 164.4729)" class="st1 st2 st3">9</text>
		<text transform="matrix(1 0 0 1 247.8733 146.4683)" class="st1 st2 st3">8</text>
		<text transform="matrix(1 0 0 1 247.8733 128.4634)" class="st1 st2 st3">7</text>
		<text transform="matrix(1 0 0 1 247.8733 110.4587)" class="st1 st2 st3">6</text>
		<text transform="matrix(1 0 0 1 247.8733 92.4539)" class="st1 st2 st3">5</text>
		<text transform="matrix(1 0 0 1 247.8733 74.4492)" class="st1 st2 st3">4</text>
		<text transform="matrix(1 0 0 1 247.8733 56.4443)" class="st1 st2 st3">3</text>
		<text transform="matrix(1 0 0 1 247.8733 38.4395)" class="st1 st2 st3">2</text>
		<text transform="matrix(1 0 0 1 247.8733 20.4348)" class="st1 st2 st3">1</text>
	</g>
	<g>
		<text transform="matrix(1 0 0 1 254.7073 182.4778)" class="st1 st2 st3">Turecko</text>
		<text transform="matrix(1 0 0 1 254.7073 164.4729)" class="st1 st2 st3">India</text>
		<text transform="matrix(1 0 0 1 254.7073 146.4683)" class="st1 st2 st3">USA</text>
		<text transform="matrix(1 0 0 1 254.7073 128.4634)" class="st1 st2 st3">Kórejská republika</text>
		<text transform="matrix(1 0 0 1 254.7073 110.4587)" class="st1 st2 st3">Irán</text>
		<text transform="matrix(1 0 0 1 254.7073 92.4539)" class="st1 st2 st3">Čína</text>
		<text transform="matrix(1 0 0 1 254.7073 74.4492)" class="st1 st2 st3">Vietnam</text>
		<text transform="matrix(1 0 0 1 254.7073 56.4443)" class="st1 st2 st3">Rusko</text>
		<text transform="matrix(1 0 0 1 254.7073 38.4395)" class="st1 st2 st3">Srbsko</text>
		<text transform="matrix(1 0 0 1 254.7073 20.4348)" class="st1 st2 st3">Ukrajina</text>
	</g>
	<g>
		<g>
			<g>
				<rect x="321.4" y="11.4" class="st1" width="83.1" height="9"/>
				<rect x="321.4" y="29.4" class="st1" width="71.4" height="9"/>
				<rect x="321.4" y="47.4" class="st1" width="27.8" height="9"/>
				<rect x="321.4" y="65.4" class="st1" width="15.9" height="9"/>
				<rect x="321.4" y="83.5" class="st1" width="11.9" height="9"/>
				<rect x="321.4" y="101.5" class="st1" width="8.4" height="9"/>
				<rect x="321.4" y="119.5" class="st1" width="5.5" height="9"/>
				<rect x="321.4" y="137.5" class="st1" width="4.9" height="9"/>
				<rect x="321.4" y="155.5" class="st1" width="4.8" height="9"/>
				<rect x="321.4" y="173.5" class="st1" width="3.8" height="9"/>
			</g>
		</g>
	</g>
	<g>
		<text transform="matrix(1 0 0 1 327.5579 182.4778)" class="st1 st2 st3">326</text>
		<text transform="matrix(1 0 0 1 328.6965 164.4729)" class="st1 st2 st3">414</text>
		<text transform="matrix(1 0 0 1 329.7161 146.4683)" class="st1 st2 st3">424</text>
		<text transform="matrix(1 0 0 1 329.7161 128.4634)" class="st1 st2 st3">474</text>
		<text transform="matrix(1 0 0 1 332.1868 110.4587)" class="st1 st2 st3">724</text>
		<text transform="matrix(1 0 0 1 335.6653 92.4539)" class="st1 st2 st3">1</text>
		<text transform="matrix(1 0 0 1 339.5653 92.4539)" class="st1 st2 st3"> </text>
		<text transform="matrix(1 0 0 1 340.8654 92.4539)" class="st1 st2 st3">023</text>
		<text transform="matrix(1 0 0 1 340.0344 74.449)" class="st1 st2 st3">1</text>
		<text transform="matrix(1 0 0 1 343.9344 74.449)" class="st1 st2 st3"> </text>
		<text transform="matrix(1 0 0 1 345.2344 74.449)" class="st1 st2 st3">370</text>
		<text transform="matrix(1 0 0 1 351.5989 56.4443)" class="st1 st2 st3">2</text>
		<text transform="matrix(1 0 0 1 355.4989 56.4443)" class="st1 st2 st3"> </text>
		<text transform="matrix(1 0 0 1 356.799 56.4443)" class="st1 st2 st3">393</text>
		<text transform="matrix(1 0 0 1 395.1887 38.4395)" class="st1 st2 st3">6</text>
		<text transform="matrix(1 0 0 1 399.0887 38.4395)" class="st1 st2 st3"> </text>
		<text transform="matrix(1 0 0 1 400.3887 38.4395)" class="st1 st2 st3">141</text>
		<text transform="matrix(1 0 0 1 406.8528 20.4348)" class="st1 st2 st3">7</text>
		<text transform="matrix(1 0 0 1 410.7528 20.4348)" class="st1 st2 st3"> </text>
		<text transform="matrix(1 0 0 1 412.0529 20.4348)" class="st1 st2 st3">144</text>
	</g>
</g>
<g>
	<text transform="matrix(1 0 0 1 0.3977 214.6678)" class="st4 st2 st3">10 najčastejších krajín pôvodu cudzincov z EÚ, Zdroj: ÚHCP</text>
</g>
<line class="st5" x1="0.4" y1="202" x2="199.9" y2="202"/>
<g>
	<text transform="matrix(1 0 0 1 242.7014 214.6656)" class="st4 st2 st3">10 najčastejších krajín pôvodu cudzincov z tretích krajín, Zdroj: ÚHCP</text>
</g>
<line class="st5" x1="242.8" y1="202" x2="442.6" y2="202"/>
</svg>
